<?xml version="1.0" encoding="utf-8"?>
<svg width="52px" height="49px" viewBox="0 0 52 49" version="1.1" xmlns:xlink="http://www.w3.org/1999/xlink" xmlns="http://www.w3.org/2000/svg">
  <defs>
    <path d="M0 0L52 0L52 30.9806L0 30.9806L0 0Z" id="path_1" />
    <clipPath id="mask_1">
      <use xlink:href="#path_1" />
    </clipPath>
  </defs>
  <g id="logo-monochrome" transform="scale(0.9999999 0.9999999)">
    <path d="M0 0L52 0L52 30.9806L0 30.9806L0 0Z" id="Background" fill="none" fill-rule="evenodd" stroke="none" />
    <g clip-path="url(#mask_1)">
      <path d="M3.11567 0.0170915C2.95179 0.0523025 2.7202 0.095641 2.56039 0.121376C2.46897 0.136271 2.38161 0.153201 2.36604 0.159298C2.32947 0.172841 2.30577 0.200603 2.2929 0.245297C2.28749 0.264934 2.26311 0.415945 2.23941 0.581852C2.21503 0.74776 2.16018 1.12088 2.11684 1.41139C1.84732 3.22553 1.74913 3.9176 1.58594 5.15276C1.52702 5.59563 1.51822 5.65658 1.50671 5.6945C1.4654 5.834 1.38075 5.90104 1.18911 5.94844C0.881001 6.0236 0.655504 6.14685 0.438809 6.35813C0.142884 6.64593 0.00135567 6.9513 0 7.30275C0 7.41449 0.0121911 7.47543 0.041986 7.50658C0.0650092 7.53096 0.089388 7.5269 0.15575 7.48898C0.228886 7.44699 0.348069 7.39485 0.498399 7.34C0.76859 7.24181 0.883709 7.18086 0.981221 7.08471C1.04623 7.02105 1.08212 6.96214 1.1688 6.77998C1.21011 6.69333 1.246 6.62358 1.25006 6.62493C1.25683 6.62696 1.30153 6.90525 1.31507 7.0285C1.32658 7.13753 1.31981 7.28718 1.29069 7.56008C1.17692 8.64762 1.13358 9.15414 1.10379 9.71687C1.09228 9.93966 1.08822 10.7164 1.09702 10.9649C1.1065 11.2222 1.11192 11.3109 1.16541 12.043C1.26699 13.423 1.32658 14.0887 1.41935 14.8634C1.59338 16.3173 1.90827 17.5091 2.39583 18.5607C2.83938 19.5162 3.33507 20.1771 3.95536 20.6397C4.28853 20.8882 4.6217 21.0548 4.9271 21.1272C5.08759 21.1651 5.14244 21.1712 5.33341 21.1712C5.52572 21.1712 5.58599 21.1645 5.73632 21.1272C6.1108 21.0338 6.48256 20.7981 6.82792 20.4379C7.36492 19.8758 7.72314 19.1783 8.0211 18.1138C8.13758 17.698 8.20191 17.3858 8.3265 16.6443C8.35088 16.4974 8.38745 16.2854 8.40777 16.1737C8.42808 16.062 8.4484 15.9387 8.45246 15.8995C8.46397 15.7938 8.46803 15.1065 8.45923 14.8701C8.45178 14.6826 8.44365 14.5478 8.43417 14.4415L8.42943 14.3961L7.95067 14.3961L7.47123 14.3961L7.46785 14.8647C7.46446 15.422 7.45025 15.6557 7.39472 16.1026C7.25522 17.2294 6.97081 18.2174 6.56654 18.9806C6.39927 19.2968 6.2889 19.4614 6.13924 19.6164C5.67267 20.1013 5.08759 20.1352 4.52757 19.7092C4.32645 19.5569 4.05423 19.2724 3.86462 19.0185C3.5714 18.6257 3.34252 18.1883 3.12108 17.5958C2.7527 16.6098 2.49267 15.483 2.36062 14.3013C2.27936 13.5679 2.1893 12.0443 2.15341 10.7834C2.14189 10.3859 2.14122 9.39725 2.15273 9.20222C2.17372 8.84061 2.18997 8.64152 2.2455 8.05442C2.29764 7.50794 2.31322 7.33526 2.33353 7.06642C2.33963 6.99193 2.34843 6.9127 2.35453 6.89036C2.38161 6.78675 2.43985 6.71974 2.53127 6.68723C2.5956 6.66489 2.65113 6.66286 3.00123 6.67301C3.92218 6.69942 4.85939 6.71026 5.15666 6.69739C5.43566 6.68588 5.66048 6.66015 6.02954 6.59785C6.22253 6.56534 6.28212 6.55044 6.31937 6.52539C6.38167 6.4834 6.37422 6.41569 6.27197 6.1008C6.24555 6.0209 6.20831 5.89968 6.18867 5.83129C6.16497 5.74596 6.15008 5.70533 6.14195 5.70059C6.13382 5.69653 6.07762 5.70195 5.97198 5.71752C5.6361 5.76696 5.66522 5.7656 5.08962 5.76493C4.59393 5.76425 4.2804 5.76019 3.19354 5.73852L2.71952 5.72903L2.63488 5.70263C2.58815 5.68841 2.53939 5.67351 2.52653 5.67012C2.50892 5.6647 2.50351 5.65996 2.50418 5.65048C2.51095 5.59292 2.6342 4.64691 2.65587 4.48913C2.68837 4.24671 2.80823 3.41378 2.91252 2.7014C2.93148 2.57274 2.97888 2.24837 3.01816 1.98021C3.15698 1.02675 3.19016 0.798548 3.23417 0.500592C3.29715 0.0739735 3.30121 0.0401147 3.29241 0.017766C3.28564 0.000162225 3.28361 -0.000515608 3.23959 0.000162225C3.21386 0.000836752 3.15833 0.0082863 3.11567 0.0170915L3.11567 0.0170915L3.11567 0.0170915Z" transform="translate(39.4039 -2.1895294)" id="Shape" fill="#048C4C" fill-rule="evenodd" stroke="none" />
      <path d="M6.51778 0.00134537C6.24691 0.0230129 5.95911 0.121881 5.73971 0.269503C5.50608 0.426608 5.33273 0.645333 5.25621 0.880991C5.21693 1.00017 5.21083 1.04419 5.21083 1.19926C5.21083 1.35163 5.21693 1.39971 5.25282 1.5243C5.28735 1.64416 5.35846 1.80127 5.42889 1.91232C5.70449 2.34707 5.97062 2.6308 6.29634 2.83666C6.3363 2.86172 6.43584 2.91589 6.51845 2.95652C6.64237 3.01814 6.6742 3.03643 6.704 3.06622C6.77578 3.13665 6.79948 3.2301 6.77578 3.34657C6.75953 3.42851 6.63831 3.82601 6.54825 4.09553C6.28889 4.87021 6.05121 5.3984 5.7844 5.79049C5.36455 6.40739 5.00768 6.86176 4.61899 7.27348C4.37656 7.53013 3.6784 8.22017 3.57208 8.30888C3.26397 8.56485 2.78792 8.88041 2.55564 8.98199C2.07959 9.19123 1.676 9.08898 1.38549 8.68539C1.26022 8.51136 1.15526 8.25268 1.04826 7.85314C1.02253 7.75834 1.01982 7.74006 1.0205 7.67301C1.02117 7.52946 1.07535 7.35745 1.15796 7.23556C1.20062 7.17326 1.22974 7.14753 1.36111 7.0534C2.05251 6.56111 2.65248 6.01598 3.11228 5.46206C3.64657 4.81875 3.95265 4.24247 4.07996 3.63979C4.16258 3.24838 4.15513 2.89151 4.05694 2.55564C3.94791 2.18522 3.7258 1.83445 3.39399 1.51347C3.2836 1.4058 3.20844 1.3435 3.11634 1.28188C2.99242 1.19926 2.82313 1.13087 2.67821 1.10378C2.58273 1.0855 2.36739 1.0855 2.27191 1.10378C2.04506 1.14644 1.85003 1.23989 1.64214 1.40648C1.38482 1.61234 1.18505 1.84393 1.0679 2.07417C0.830213 2.54006 0.536321 3.30527 0.361609 3.91472C0.119183 4.75983 0 5.74579 0 6.90443C0.000677833 7.53352 0.0338586 7.8782 0.132726 8.2757C0.242429 8.71451 0.468604 9.2339 0.648055 9.45872C0.86678 9.73297 1.17625 9.90497 1.56765 9.96998C1.68345 9.98894 1.99427 9.98691 2.11887 9.9666C2.50012 9.90362 3.00393 9.69099 3.49082 9.38626C3.66756 9.27588 3.9838 9.05648 4.13075 8.94339C4.26821 8.83707 4.54653 8.59532 4.77406 8.38269C5.14921 8.03395 5.36929 7.79762 5.8853 7.19155C6.20492 6.81639 6.28618 6.71347 6.43042 6.49813C6.88819 5.8169 7.2498 4.99007 7.62495 3.76913C7.65949 3.65604 7.69335 3.55853 7.70283 3.54431C7.73804 3.49081 7.82878 3.43799 7.91681 3.41971C7.96489 3.40955 7.96896 3.41023 8.15585 3.43731C8.83709 3.53686 9.52238 3.65197 9.70725 3.6987C10.377 3.868 10.9119 4.32712 11.151 4.93725C11.2519 5.19322 11.2959 5.43362 11.2959 5.72277C11.2952 6.36879 11.0636 6.91052 10.6418 7.24911C10.3858 7.45429 10.1325 7.56128 9.83388 7.58905C9.66392 7.6053 9.40795 7.58972 9.16145 7.54774C9.09306 7.53623 9.0829 7.53623 9.04836 7.54503C8.97997 7.56264 8.95559 7.58227 8.90751 7.65744C8.84995 7.74615 8.78698 7.8545 8.65764 8.08948C8.48835 8.39556 8.49512 8.38134 8.50595 8.38811C8.52762 8.40097 8.77344 8.45244 8.93866 8.47817C9.26777 8.52964 9.58807 8.52964 9.84472 8.47817C10.4982 8.34816 11.0806 8.03259 11.4794 7.5904C11.9182 7.10419 12.2074 6.44937 12.288 5.75663C12.3029 5.62932 12.3056 5.28328 12.292 5.16072C12.2338 4.62507 12.0496 4.16731 11.7327 3.76913C11.648 3.66281 11.4523 3.46711 11.346 3.38179C11.1767 3.24568 11.0149 3.1441 10.811 3.0432C10.3966 2.83937 10.0039 2.74389 8.88991 2.57731C8.52965 2.52381 8.35765 2.49672 8.28723 2.48183C8.07662 2.43916 7.9913 2.364 7.96963 2.20148C7.96219 2.14189 7.96286 2.11886 7.97776 1.93738C7.98453 1.85273 7.98385 1.84054 7.95677 1.61234C7.91546 1.26359 7.89582 1.16473 7.8342 1.00017C7.62969 0.45505 7.25183 0.0941159 6.8049 0.0182747C6.7277 0.00473122 6.58143 -0.00339616 6.51778 0.00134537L6.51778 0.00134537L6.51778 0.00134537ZM6.57251 1.10176C6.65716 1.12749 6.7479 1.1864 6.83187 1.27037C7.01673 1.45727 7.09461 1.67871 7.03502 1.85139C7.01538 1.9103 6.98559 1.94687 6.94089 1.96989C6.90771 1.9875 6.89823 1.98885 6.85286 1.98682C6.76483 1.98208 6.68628 1.93603 6.56574 1.81956C6.43572 1.69293 6.31654 1.51551 6.27727 1.38888C6.24205 1.27579 6.26846 1.16676 6.34295 1.12072C6.40051 1.08483 6.4926 1.07738 6.57251 1.10176L6.57251 1.10176L6.57251 1.10176ZM2.28621 2.03627C2.48124 2.07081 2.81982 2.41888 2.98641 2.75475C3.06089 2.90509 3.10356 3.04255 3.1259 3.20101C3.1408 3.30665 3.13538 3.55788 3.11642 3.66081C3.07782 3.86328 3.01417 4.04544 2.90379 4.2662C2.7494 4.57431 2.56995 4.83909 2.30314 5.15059C2.20698 5.263 1.83792 5.63477 1.71739 5.7404C1.45261 5.972 1.22712 6.15957 1.21154 6.15957C1.19799 6.15957 1.00162 6.09253 0.992813 6.08508C0.990105 6.0817 0.996877 6.01127 1.00839 5.92798C1.03344 5.74785 1.03818 5.70993 1.08694 5.31988C1.19055 4.49509 1.26571 4.103 1.41943 3.58632C1.52101 3.2457 1.68488 2.78455 1.81287 2.47982C1.9334 2.19406 2.03498 2.06878 2.1738 2.03831C2.22188 2.02747 2.23745 2.02747 2.28621 2.03627L2.28621 2.03627L2.28621 2.03627Z" transform="translate(27.500244 8.572952)" id="Shape#2" fill="#048C4C" fill-rule="evenodd" stroke="none" />
      <path d="M0.00405051 0.0250534C0.0277517 0.111733 0.127973 0.261389 0.232935 0.366351C0.291173 0.424585 0.358891 0.476051 0.369727 0.469957C0.379207 0.463863 0.375821 0.397498 0.364307 0.358223C0.32774 0.234302 0.196369 0.0778748 0.0798925 0.0203152C0.0568691 0.00947975 0.0291041 0 0.0175941 0C-0.00272128 0 -0.00272128 0 0.00405051 0.0250534L0.00405051 0.0250534L0.00405051 0.0250534Z" transform="translate(33.97107 9.8703)" id="Shape#3" fill="#048C4C" fill-rule="evenodd" stroke="none" />
      <path d="M14.6279 0.00618305C14.3713 0.0332699 14.0686 0.223552 13.8769 0.477492C13.7239 0.680645 13.5912 0.967089 13.4781 1.33953C13.3095 1.89346 13.2309 2.44468 13.1774 3.45163C13.1083 4.74977 13.212 6.04587 13.4991 7.48146C13.5939 7.9548 13.6914 8.36923 13.8478 8.96446C13.8796 9.08432 13.8905 9.19132 13.8796 9.2807C13.8634 9.42088 13.8383 9.48114 13.7124 9.68091C13.6596 9.76556 13.5289 9.9748 13.4212 10.1461C12.9851 10.8402 12.6655 11.3515 12.4332 11.7233C12.2253 12.0578 12.182 12.1228 12.1413 12.1641C12.0418 12.265 11.9456 12.2873 11.7628 12.2542C11.6924 12.2406 11.6578 12.2386 11.515 12.2386C11.3728 12.2386 11.3375 12.2413 11.2678 12.2535C11.1689 12.2718 11.0382 12.307 10.9488 12.3402C10.7823 12.4004 10.5473 12.5352 10.4078 12.6483C10.1464 12.8609 9.95747 13.1345 9.89111 13.3993C9.87553 13.4622 9.8735 13.4846 9.87282 13.5828C9.87282 13.6708 9.87553 13.7053 9.88569 13.7453C9.96018 14.0378 10.2046 14.2193 10.5676 14.2538C10.6299 14.2599 10.6705 14.2599 10.7355 14.2538C10.9434 14.2349 11.0633 14.1922 11.5217 13.9742C11.7946 13.8442 11.8393 13.8238 11.842 13.8272C11.8434 13.8286 11.8522 13.8814 11.8624 13.9451C11.8725 14.008 11.8915 14.1211 11.9043 14.1956C11.9375 14.3873 11.9456 14.5383 11.9355 14.7881C11.9111 15.38 11.8021 15.9028 11.5928 16.4303C11.345 17.0553 10.9455 17.6824 10.4389 18.2417C10.2243 18.4787 9.9832 18.6568 9.67712 18.8038C9.50173 18.8884 9.41505 18.9121 9.28097 18.9121C9.2356 18.9121 9.1794 18.9081 9.15231 18.902C8.9627 18.862 8.80492 18.7347 8.70944 18.5431C8.64917 18.4225 8.62547 18.3284 8.59365 18.086C8.56317 17.8564 8.55369 17.7291 8.46092 16.41C8.35393 14.8931 8.2747 14.2627 8.1054 13.5895C8.01737 13.2401 7.85891 12.7891 7.7675 12.6293C7.55689 12.2603 7.22644 12.1018 6.86279 12.1973C6.82758 12.2068 6.77883 12.2223 6.75512 12.2318C6.5066 12.3341 6.21203 12.5697 6.04003 12.804C5.9432 12.9368 5.59581 13.5767 5.37234 14.0331C5.21456 14.3561 5.14278 14.5125 4.89358 15.0692C4.26584 16.4736 3.87037 17.2767 3.41396 18.0724C3.15325 18.5261 2.92098 18.8911 2.65824 19.2575C2.35283 19.6841 2.24855 19.8229 2.18692 19.8839C2.08806 19.982 1.97768 20.0498 1.8585 20.0836C1.78604 20.1046 1.66279 20.1094 1.58695 20.0945C1.38245 20.0531 1.21925 19.9116 1.14747 19.7132C1.09532 19.5676 1.05131 19.3272 1.02219 19.0238C1.00662 18.8627 0.995103 18.4828 1.00458 18.451C1.01677 18.411 1.03912 18.3893 1.14273 18.3182C1.51111 18.0663 1.89303 17.765 2.24787 17.4467C2.40633 17.3052 2.78554 16.9273 2.91218 16.7858C3.16544 16.5027 3.34353 16.2772 3.50538 16.0328C3.62253 15.8567 3.69228 15.7369 3.78437 15.5533C3.96111 15.1985 4.06201 14.8823 4.11822 14.5071C4.13515 14.3906 4.13582 14.0581 4.11822 13.9518C4.04712 13.5103 3.85751 13.1358 3.51689 12.7634C3.23586 12.4566 2.96974 12.2873 2.66365 12.2203C2.60271 12.2074 2.57291 12.2054 2.44425 12.2054C2.31423 12.2047 2.28647 12.2068 2.22417 12.2203C1.94179 12.2819 1.68311 12.4323 1.43391 12.6808C1.05673 13.0559 0.80685 13.511 0.562391 14.2667C0.352468 14.9161 0.223128 15.4734 0.132387 16.1154C0.0680561 16.5698 0.0199762 17.1108 0.00507879 17.5612C-0.00169293 17.7535 -0.00169293 18.2498 0.00507879 18.413C0.0321656 19.0889 0.155411 19.7227 0.366688 20.2766C0.514989 20.6633 0.657195 20.8272 0.991717 20.9937C1.12173 21.0581 1.22737 21.098 1.33707 21.1217C1.4847 21.1549 1.59914 21.161 1.73457 21.1434C2.01628 21.1061 2.2648 20.9802 2.51739 20.7459C2.68668 20.5888 3.09027 20.1141 3.33947 19.7789C3.88663 19.0415 4.30715 18.3297 4.90509 17.1278C5.28769 16.3599 5.41635 16.0856 5.8423 15.1335C6.19714 14.3392 6.25876 14.2071 6.30006 14.1516C6.34679 14.0893 6.42805 14.0121 6.47207 13.9884C6.5303 13.9572 6.56619 13.9579 6.63594 13.9911C6.72939 14.0358 6.81607 14.1103 6.87227 14.1949C6.90072 14.2376 6.96369 14.3961 7.02735 14.583C7.08017 14.7367 7.11335 14.8552 7.13637 14.971C7.16955 15.1335 7.33275 16.4919 7.44178 17.5002C7.45058 17.5855 7.47631 17.8313 7.49866 18.0453C7.54267 18.4631 7.54945 18.5112 7.58127 18.6406C7.69639 19.1044 7.97336 19.4762 8.3458 19.6665C8.57942 19.7857 8.82795 19.8297 9.13877 19.806C9.69811 19.7626 10.1674 19.571 10.6028 19.2067C11.0078 18.8681 11.4107 18.4334 11.7147 18.0081C12.224 17.295 12.5795 16.5082 12.8111 15.5818C12.9228 15.1348 12.9709 14.7793 12.9709 14.3994C12.9709 13.941 12.9018 13.5692 12.74 13.1548C12.6973 13.0465 12.6932 13.0309 12.6932 12.9869C12.6932 12.9259 12.7075 12.8704 12.74 12.8006C12.7725 12.7336 13.1788 12.1316 13.5702 11.5716C13.7578 11.3034 13.7618 11.298 14.0957 10.8605C14.1566 10.78 14.2203 10.696 14.2372 10.673C14.2541 10.6499 14.2697 10.631 14.2724 10.631C14.2751 10.6303 14.2846 10.6554 14.2941 10.6858C14.3151 10.7549 14.441 11.1863 14.5114 11.4294C14.5873 11.6921 14.7187 12.1275 14.7735 12.2989C14.8162 12.4323 14.8216 12.456 14.8243 12.5162C14.8317 12.6625 14.7843 12.7167 14.5385 12.8447C14.2365 13.0024 13.5939 13.3871 13.535 13.4453C13.4916 13.4893 13.5045 13.511 13.6481 13.6376C13.7727 13.7473 13.8756 13.8475 13.9758 13.9586C14.0469 14.0372 14.0936 14.0771 14.1133 14.0771C14.1322 14.0771 14.1627 14.0487 14.2047 13.9938C14.3083 13.8584 14.441 13.7582 14.613 13.6871C14.6591 13.6681 15.0146 13.5421 15.0911 13.5178C15.0999 13.5144 15.1135 13.5428 15.1609 13.6606C15.211 13.7859 15.2279 13.8401 15.28 14.0392C15.7676 15.9089 16.0121 17.2524 16.096 18.5261C16.1177 18.8539 16.1224 19.0245 16.1224 19.4268C16.1224 19.8324 16.1177 20.0051 16.096 20.3206C16.0107 21.5599 15.7541 22.7544 15.3491 23.8013C15.0843 24.4852 14.7491 25.1509 14.3266 25.8294C13.5952 27.0036 12.9499 27.7031 12.1583 28.1792C11.8231 28.3803 11.5461 28.4623 11.2353 28.4514C11.0978 28.4467 10.9962 28.4291 10.8716 28.3884C10.5832 28.2936 10.3705 28.1196 10.2033 27.8426C10.0638 27.6111 9.96492 27.3382 9.91345 27.0436C9.86402 26.7578 9.85251 26.3969 9.88027 26.0224C9.94663 25.1285 10.2466 24.1866 10.8493 22.9819C11.2739 22.1327 11.7201 21.419 12.3005 20.6626C12.3777 20.5617 12.5084 20.387 12.5917 20.2732C12.675 20.1595 12.7657 20.0376 12.7941 20.0024C12.851 19.9306 12.8896 19.8703 12.8896 19.8527C12.8896 19.8317 12.8449 19.8033 12.7359 19.7559C12.593 19.6936 12.4657 19.6292 12.3384 19.5561C12.2226 19.4897 12.1942 19.4776 12.1664 19.4843C12.1373 19.4911 12.1197 19.5101 11.9978 19.6678C11.7899 19.936 11.7642 19.9732 11.3138 20.6497C10.5771 21.7549 10.3909 22.0454 10.1051 22.535C9.50105 23.5704 9.12996 24.5855 8.94848 25.6987C8.80289 26.5939 8.83133 27.2874 9.03787 27.8948C9.11236 28.1142 9.21123 28.2862 9.47668 28.6566C9.6541 28.9045 9.68457 28.9403 9.78479 29.0169C9.90397 29.1076 10.0922 29.197 10.3766 29.2972C10.5466 29.3582 10.7274 29.3832 10.9969 29.3832C11.1987 29.3839 11.3274 29.3724 11.4317 29.3446C11.4649 29.3358 11.5678 29.3094 11.6606 29.285C11.863 29.2322 11.8989 29.22 12.0513 29.1537C12.5226 28.9491 12.9749 28.6559 13.4226 28.2659C13.5627 28.1433 13.9155 27.7919 14.0489 27.6409C14.4668 27.1682 14.8257 26.6766 15.1988 26.063C16.2023 24.4148 16.8016 22.7165 17.0366 20.859C17.0752 20.5549 17.1057 20.2103 17.1267 19.8331C17.1409 19.5744 17.1429 18.7936 17.1301 18.5397C17.0644 17.2612 16.912 16.3443 16.4583 14.4902C16.1962 13.4203 16.1759 13.3329 16.1698 13.2767C16.1617 13.1948 16.1962 13.1094 16.2585 13.058C16.2755 13.0444 16.3716 12.9896 16.4732 12.9368C16.7739 12.779 17.0806 12.5988 17.2296 12.4932C17.6393 12.2027 17.8953 11.8953 18.0537 11.5025C18.1059 11.3725 18.158 11.1822 18.158 11.1192C18.158 11.0759 18.1743 11.0786 17.8634 11.063C17.7165 11.0562 17.491 11.0353 17.4273 11.0231C17.3711 11.0122 17.2933 11.0143 17.2662 11.0271C17.231 11.0441 17.2079 11.0915 17.1809 11.2018C17.1023 11.5221 16.9425 11.7327 16.6263 11.9305C16.5877 11.9542 16.4421 12.0321 16.3026 12.1032C16.1631 12.1749 16.029 12.2447 16.006 12.2582L15.9626 12.284L15.9518 12.2677C15.9457 12.2596 15.9206 12.2278 15.8969 12.198C15.8726 12.1682 15.8482 12.1343 15.8414 12.1235C15.8313 12.1065 15.7513 11.8262 15.513 10.9757C15.5001 10.9289 15.4818 10.8653 15.473 10.8335C15.4209 10.6499 15.1405 9.64028 15.0708 9.38499C14.9916 9.09583 14.9909 9.09787 15.1209 8.77486C15.5272 7.76587 15.8021 6.75149 15.9667 5.65312C16.0696 4.96646 16.115 4.37868 16.115 3.73333C16.115 3.0907 16.0696 2.54084 15.9674 1.93883C15.8536 1.26911 15.6836 0.795764 15.4236 0.421966C15.2475 0.168704 15.0383 0.0325921 14.7843 0.00550522C14.7139 -0.00194433 14.7024 -0.00194433 14.6279 0.00618305L14.6279 0.00618305L14.6279 0.00618305ZM14.5771 1.21896C14.6671 1.35439 14.6976 1.40924 14.7416 1.51217C14.8994 1.88191 15.0172 2.51236 15.0734 3.27959C15.1066 3.73465 15.1175 4.30144 15.1005 4.71181C15.0985 4.75447 15.0958 4.83506 15.0938 4.89126C15.0897 5.00503 15.0877 5.03347 15.0728 5.24C15.0227 5.93749 14.9116 6.51918 14.766 6.84556C14.7261 6.93494 14.6597 7.04803 14.6475 7.04803C14.6428 7.04803 14.6225 7.03517 14.6035 7.02027L14.5683 6.99183L14.5304 6.99995C14.464 7.01282 14.4647 7.0135 14.4552 6.96135C14.3022 6.10678 14.2263 5.50478 14.1728 4.72197C14.1613 4.55606 14.1491 4.13283 14.1491 3.90598C14.1491 3.67912 14.1613 3.2674 14.1728 3.12384C14.1748 3.09743 14.1809 3.0155 14.187 2.94101C14.2283 2.39792 14.3082 1.87852 14.4376 1.31241C14.487 1.09571 14.485 1.10249 14.4931 1.10249C14.4965 1.10249 14.5344 1.15531 14.5771 1.21896L14.5771 1.21896L14.5771 1.21896ZM2.2728 13.1473C2.3114 13.1804 2.36761 13.2251 2.39605 13.2475C2.67978 13.4662 2.78339 13.5671 2.89512 13.7344C3.01363 13.9111 3.08609 14.1007 3.11453 14.3106C3.1301 14.4197 3.12536 14.6276 3.10505 14.744C3.06848 14.9594 3.00279 15.1469 2.87616 15.4002C2.60868 15.9352 2.20712 16.418 1.57735 16.9624C1.45207 17.0708 1.26449 17.2272 1.211 17.2679C1.20355 17.2733 1.01868 17.211 0.999721 17.1967C0.994303 17.1927 0.992272 17.1825 0.994303 17.1724C0.996335 17.1629 1.00311 17.1074 1.00852 17.0498C1.08437 16.2846 1.10333 16.116 1.15141 15.797C1.26314 15.0515 1.43379 14.4203 1.66267 13.9023C1.77034 13.6592 1.81436 13.5874 2.00938 13.3321C2.06491 13.2597 2.12789 13.175 2.14888 13.1446C2.16987 13.1141 2.19019 13.089 2.19425 13.0883C2.19831 13.0883 2.23353 13.1148 2.2728 13.1473L2.2728 13.1473L2.2728 13.1473Z" transform="translate(8.658081 1.5966187)" id="Shape#5" fill="#048C4C" fill-rule="evenodd" stroke="none" />
      <path d="M3.35316 0.00164295C3.18251 0.00976703 3.03489 0.0199246 2.95024 0.0287298C2.59743 0.0639407 2.03064 0.133691 1.46046 0.210888C1.42119 0.216304 1.3318 0.228495 1.2607 0.237975C1.19027 0.247455 1.03452 0.269126 0.91534 0.285377C0.796157 0.301629 0.574045 0.332101 0.421003 0.353094C0.26864 0.373409 0.128465 0.395077 0.110859 0.401174C0.0668427 0.41607 0.0343386 0.449251 0.0214722 0.493945C0.00792873 0.541347 0.00657431 0.724185 0.00115702 3.75927C-0.00358327 6.08061 0.00725173 16.2646 0.0153778 17.5295C0.0174093 17.8403 0.0187637 18.1078 0.0187637 18.1234L0.0180863 18.1525L0.0438188 18.1525C0.0986701 18.1525 0.482626 18.0645 0.610611 18.0225C0.788709 17.9649 0.902473 17.8722 1.07448 17.6446C1.18485 17.4984 1.51125 17.0521 1.67377 16.8253C2.02522 16.3343 2.50602 15.6294 2.83851 15.1154C3.48859 14.1125 4.13664 13.0439 4.83752 11.8176C6.17222 9.4854 6.96451 7.71933 7.46358 5.96752C7.70939 5.10413 7.8218 4.46894 7.84754 3.80532C7.87056 3.20331 7.80352 2.67714 7.64709 2.22886C7.4927 1.7887 7.27262 1.43183 6.95638 1.10949C6.56227 0.708611 6.06252 0.424197 5.45577 0.257612C4.99259 0.130306 4.5206 0.049045 4.0371 0.0145085C3.90844 0.00502881 3.45406 -0.0037764 3.35316 0.00164295L3.35316 0.00164295L3.35316 0.00164295ZM3.51913 0.921856C3.7426 0.933361 3.88751 0.94488 4.05748 0.965872C4.91478 1.07287 5.47751 1.27466 5.93595 1.6383C6.03753 1.71888 6.2163 1.89631 6.29621 1.99517C6.48582 2.23083 6.63547 2.52269 6.72554 2.83148C6.84607 3.24726 6.87451 3.67794 6.82033 4.27724C6.73569 5.20903 6.5129 6.11372 6.10118 7.1992C5.50324 8.7743 4.69808 10.4036 3.67014 12.1168C3.49814 12.4046 3.00719 13.205 2.94692 13.2971C2.93879 13.31 2.82909 13.484 2.70449 13.6831C2.50337 14.0041 1.89189 14.9711 1.72801 15.2271C1.71243 15.2514 1.62373 15.3916 1.53163 15.5386C1.36234 15.8074 1.34202 15.8365 1.18627 16.0363C1.13955 16.0959 1.08876 16.1622 1.07251 16.1832C1.05693 16.2049 1.04068 16.2225 1.03662 16.2225C1.03188 16.2225 1.02578 16.1352 1.01833 15.9665C1.00479 15.6578 1.0014 14.1003 0.998696 6.37309C0.996665 1.54079 0.997342 1.36066 1.00885 1.31868C1.04881 1.1785 1.13616 1.10198 1.29801 1.06474C1.34541 1.0539 1.62305 1.01666 1.86344 0.989573C2.47899 0.920502 3.03224 0.897478 3.51913 0.921856L3.51913 0.921856L3.51913 0.921856Z" transform="translate(0.5576172 7.367325)" id="Shape#9" fill="#048C4C" fill-rule="evenodd" stroke="none" />
      <path d="M1.28817 0.00212608C1.17982 0.0102502 1.09111 0.0366592 0.979373 0.0942188C0.850039 0.160584 0.720702 0.273669 0.630633 0.398272C0.539892 0.523548 0.457279 0.723316 0.424773 0.893956C0.380079 1.13165 0.390237 1.38829 0.455246 1.66391C0.476239 1.75329 0.494524 1.80069 0.520255 1.83116C0.537184 1.85215 0.545312 1.8569 0.565627 1.8569C0.614381 1.8569 0.686843 1.80544 0.712575 1.75262C0.747111 1.68218 0.767426 1.54269 0.790449 1.22713C0.819566 0.821506 0.856136 0.633248 0.921813 0.545216C0.991571 0.452445 1.14189 0.358994 1.26853 0.329199C1.38027 0.303468 1.46153 0.328521 1.55565 0.418587C1.65654 0.515421 1.73781 0.658983 1.76693 0.793065C1.78521 0.877711 1.78657 1.05716 1.76964 1.17769C1.72426 1.50816 1.60914 1.88467 1.44189 2.24966C1.26921 2.62617 1.02475 3.04466 0.521611 3.82272C0.120046 4.44437 0.045557 4.57236 0.0164399 4.69425C-0.00252286 4.77145 -0.00455305 4.80734 0.00763472 4.82562C0.0211782 4.84662 0.0821236 4.86693 0.162032 4.87709C0.340127 4.89943 0.373985 4.90282 0.390237 4.89605C0.418679 4.88521 0.564949 4.85203 0.64824 4.83713C1.13174 4.75181 1.6193 4.78973 2.09197 4.94819C2.2423 4.99898 2.33643 5.03825 2.51047 5.12155C2.82061 5.26985 2.84498 5.26646 2.91135 5.07008C2.93099 5.01184 2.93505 4.99424 2.92828 4.98747C2.9127 4.97325 2.72919 4.87641 2.62829 4.83036C2.23689 4.65024 1.86174 4.55205 1.40668 4.51074C1.28546 4.49922 0.916404 4.49922 0.78097 4.51074C0.722048 4.51548 0.625895 4.52496 0.567657 4.53105C0.50942 4.53782 0.460665 4.54256 0.45931 4.54121C0.457954 4.53986 0.53109 4.41932 0.621831 4.27304C0.977349 3.69813 1.0498 3.57963 1.16628 3.38731C1.65249 2.5808 1.85631 2.16027 1.99513 1.67745C2.10213 1.30433 2.14276 0.914956 2.09807 0.690804C2.008 0.24523 1.6877 -0.0269943 1.28817 0.00212608L1.28817 0.00212608L1.28817 0.00212608Z" transform="translate(37.00934 19.200302)" id="Shape#12" fill="#048C4C" fill-rule="evenodd" stroke="none" />
      <path d="M1.24726 0.00427493C0.996031 0.0435496 0.777984 0.183725 0.601919 0.41938C0.462421 0.604924 0.320215 0.898145 0.214575 1.21642C-0.0231125 1.93218 -0.0644173 2.67436 0.0960704 3.33935C0.189522 3.72872 0.376419 4.13367 0.601919 4.43771C0.666928 4.52643 0.830802 4.68895 0.912062 4.74651C1.02515 4.82574 1.16397 4.88669 1.28789 4.91106C1.36915 4.92663 1.50865 4.9246 1.59601 4.907C1.7206 4.88126 1.85333 4.821 1.97725 4.73297C2.04091 4.68759 2.20546 4.5271 2.26166 4.45533C2.61853 4.00094 2.79324 3.43347 2.81424 2.65879C2.83659 1.81639 2.68354 1.17442 2.3348 0.647588C2.09576 0.285979 1.82963 0.078086 1.5249 0.0144325C1.46125 0.00088907 1.3055 -0.00453029 1.24726 0.00427493L1.24726 0.00427493L1.24726 0.00427493ZM1.51673 0.340113C1.63727 0.367875 1.7341 0.426112 1.84719 0.538523C2.12212 0.814135 2.3185 1.24346 2.4045 1.7615C2.44717 2.0134 2.45123 2.0669 2.45461 2.37773C2.45868 2.83007 2.44242 3.04609 2.3808 3.33592C2.33408 3.55532 2.26433 3.75102 2.15395 3.97246C2.05576 4.16816 1.96637 4.29682 1.85464 4.39908C1.58987 4.64353 1.29936 4.66588 1.04677 4.46138C0.937073 4.37267 0.840913 4.24198 0.740015 4.04695C0.603225 3.7815 0.511132 3.53907 0.441381 3.26482C0.325584 2.80637 0.308655 2.37095 0.387886 1.89355C0.440704 1.57528 0.548377 1.23194 0.698707 0.904193C0.76236 0.766057 0.824661 0.675313 0.935717 0.560194C1.04474 0.447105 1.1646 0.371938 1.28107 0.343499C1.34947 0.32657 1.45105 0.325214 1.51673 0.340113L1.51673 0.340113L1.51673 0.340113Z" transform="translate(40.740814 19.98294)" id="Shape#13" fill="#048C4C" fill-rule="evenodd" stroke="none" />
      <path d="M1.27536 0.00593682C0.971993 0.0452114 0.678101 0.265292 0.526412 0.567311C0.42687 0.766402 0.37879 1.0305 0.397071 1.28512C0.411293 1.48623 0.455309 1.69615 0.506097 1.80518C0.538603 1.87493 0.536569 1.87426 0.602934 1.85665C0.657782 1.84242 0.724825 1.80925 0.758684 1.77877L0.787123 1.75439L0.791864 1.52822C0.802022 1.06706 0.813535 0.914019 0.848068 0.777238C0.871769 0.681756 0.888024 0.64383 0.926621 0.593042C1.01465 0.475893 1.22932 0.358066 1.38778 0.339781C1.42299 0.335717 1.43179 0.337073 1.47039 0.35671C1.56452 0.402757 1.69115 0.580855 1.74532 0.742017C1.7785 0.842245 1.78798 0.929601 1.78798 1.14291C1.78798 1.42055 1.77173 1.52686 1.69115 1.76184C1.60244 2.02187 1.50289 2.21961 1.29297 2.55481C1.08508 2.88526 1.03768 2.96518 0.935426 3.1514C0.789156 3.41888 0.670651 3.61459 0.455987 3.94234C0.156001 4.4001 0.0435896 4.58361 0.0219188 4.65133C0.000925821 4.71904 -0.00652042 4.8003 0.00634518 4.8362C0.0225966 4.88495 0.0550996 4.89714 0.23252 4.92153L0.34019 4.93642L0.438379 4.90934C0.632729 4.85516 0.783737 4.82808 0.976731 4.81249C1.0993 4.80302 1.33834 4.80776 1.46429 4.82334C1.80221 4.86329 2.14892 4.96757 2.49969 5.1328C2.67576 5.21542 2.75363 5.24657 2.78681 5.24657C2.83151 5.24657 2.85588 5.21677 2.95001 5.04883L2.97168 5.01023L2.91886 4.97909C2.83625 4.93033 2.59179 4.81115 2.48005 4.76509C1.91191 4.5308 1.31464 4.45495 0.625279 4.52944C0.555532 4.53689 0.496617 4.54163 0.494587 4.54028C0.489845 4.53485 0.722117 4.13668 1.02752 3.62813C1.67287 2.55277 1.85502 2.20742 1.99249 1.79638C2.08729 1.51264 2.12657 1.28105 2.12725 1.00748C2.12725 0.676336 2.0812 0.479957 1.96134 0.305922C1.92139 0.248363 1.832 0.160331 1.77309 0.120378C1.63088 0.0248963 1.45143 -0.0164118 1.27536 0.00593682L1.27536 0.00593682L1.27536 0.00593682Z" transform="translate(44.539795 20.381592)" id="Shape#15" fill="#048C4C" fill-rule="evenodd" stroke="none" />
      <path d="M1.25954 0.00402071C1.20469 0.0216278 1.18302 0.0426208 1.12749 0.133361C0.882352 0.530184 0.647376 0.810534 0.382601 1.02249C0.283734 1.10172 0.121213 1.20262 0.0582373 1.22429C0.0250566 1.23647 0 1.2595 0 1.27914C0 1.28794 0.0196373 1.35837 0.0433383 1.43692C0.0738109 1.53714 0.0893878 1.57845 0.0961595 1.57709C0.13679 1.56693 0.235657 1.49786 0.526841 1.27643C0.711707 1.13558 0.87152 1.01098 0.881 1.00014C0.890479 0.989307 0.906053 0.965606 0.914858 0.947999C0.997471 0.791573 1.02456 0.742817 1.02862 0.742817C1.03133 0.742817 1.05097 0.767872 1.07196 0.799021L1.11056 0.855227L1.10108 0.983889C1.09566 1.05432 1.08889 1.15589 1.08686 1.21007C1.0767 1.46468 1.0679 1.61772 1.053 1.83645C0.992733 2.69646 0.966998 3.31675 0.96971 3.84765C0.97174 4.34537 0.986639 4.59389 1.04013 5.03947C1.06316 5.23314 1.05503 5.21283 1.10379 5.20131C1.16067 5.18845 1.18911 5.17558 1.23109 5.14376C1.27579 5.1099 1.31642 5.04895 1.33538 4.98665C1.35096 4.93451 1.35028 4.88643 1.33132 4.74829C1.2399 4.07789 1.23787 3.00254 1.32455 1.73826C1.34689 1.40374 1.38346 0.961542 1.41596 0.614153C1.45456 0.199723 1.45862 0.146227 1.45322 0.118462C1.44711 0.0846035 1.41122 0.0385571 1.37601 0.0195943C1.34554 0.00266504 1.2873 -0.00545904 1.25954 0.00402071L1.25954 0.00402071L1.25954 0.00402071Z" transform="translate(48.451843 21.12709)" id="Shape#16" fill="#048C4C" fill-rule="evenodd" stroke="none" />
      <path d="M0 0.000684454C0 0.00203848 0.0209933 0.0162599 0.0474027 0.0325115C0.0731376 0.0487632 0.0948054 0.0650165 0.0948054 0.0690786C0.0948054 0.0724645 0.144242 0.100229 0.20451 0.130025L0.313537 0.183523L0.395474 0.185555L0.477413 0.186909L0.433396 0.165916C0.316923 0.110387 0 -0.0101511 0 0.000684454L0 0.000684454L0 0.000684454Z" transform="translate(38.93756 24.249496)" id="Shape#17" fill="#048C4C" fill-rule="evenodd" stroke="none" />
    </g>
  </g>
  <g id="Panthère" transform="matrix(0.9999999 0 0 0.9999999 4.5765686 24.475632)">
    <path d="M23.3727 0.00584195C22.3701 0.0564662 21.2786 0.471328 20.0551 1.26648L19.9939 1.30661L19.9186 1.48132C19.4963 2.46723 18.892 3.49451 18.3024 4.22793C17.6054 5.09469 16.8843 5.67686 16.0848 6.01825C15.9645 6.07011 15.9188 6.08493 15.7762 6.12073C15.7151 6.13617 15.6329 6.15777 15.5941 6.1695C15.4354 6.21581 15.3539 6.22507 15.0909 6.22507C14.7544 6.22507 14.6334 6.20531 14.3779 6.10962C14.1291 6.0164 13.9902 5.94787 13.8704 5.85774C13.7698 5.78181 13.7037 5.70834 13.5741 5.52684C13.3605 5.22742 13.2845 5.10951 13.2129 4.96566C13.082 4.70452 12.9876 4.32362 12.9573 3.93653C12.9499 3.84332 12.9487 3.83961 12.937 3.84208C12.9296 3.84393 12.8407 3.8606 12.7388 3.87912C12.3505 3.95135 11.8436 4.05568 11.5195 4.13039C9.86501 4.51129 8.28952 5.12988 6.78441 5.98924C5.99728 6.43805 5.25152 6.94675 4.14522 7.78944C3.89951 7.9765 3.36488 8.38766 3.27166 8.46174C2.93212 8.73152 2.57035 9.07971 2.28328 9.4137C1.79495 9.98228 1.38688 10.6385 1.07944 11.3516C0.541725 12.5962 0.220084 13.5987 0.0768573 14.4766C0.0317909 14.7563 0.0101835 15.0551 0.00215757 15.5132C-0.0015464 15.7268 -0.0015464 15.7416 0.0108007 15.8015C0.0645102 16.0632 0.207737 16.2416 0.462086 16.3663C0.592348 16.4293 0.812126 16.4892 1.01215 16.5157C1.1208 16.5306 1.4801 16.5639 2.09869 16.6182C2.29378 16.6349 2.50121 16.6528 2.55862 16.6583C2.61665 16.6633 2.85001 16.683 3.0772 16.7016C3.305 16.7201 3.50502 16.7368 3.52169 16.738L3.55256 16.7411L3.52787 16.7213C3.46798 16.6732 3.35562 16.5713 3.32105 16.533C3.18956 16.3904 3.03028 16.1657 2.91236 15.9577C2.84754 15.8428 2.66666 15.4903 2.66666 15.4792C2.66666 15.4767 2.67098 15.478 2.67592 15.4823C2.68826 15.4928 2.68826 15.4909 2.66419 15.4286C2.57652 15.1989 2.50368 14.9069 2.47836 14.6828C2.45676 14.4908 2.44997 14.1704 2.46293 13.9574C2.51479 13.1234 2.76296 12.3406 3.22413 11.5621C3.25129 11.5164 3.30562 11.4257 3.34451 11.3615C3.82049 10.5762 4.26622 10.0459 4.7811 9.65262C5.22991 9.30937 5.61884 9.08033 5.95407 8.96118C6.54488 8.7519 7.54869 8.66053 8.40496 8.7377C8.71179 8.76548 8.88773 8.79635 9.22604 8.88093C9.81747 9.02847 10.2867 9.17663 10.4978 9.2822C10.5645 9.31616 11.004 9.55507 11.1331 9.62792C11.5979 9.89153 11.9047 10.1132 12.1646 10.3737C12.2918 10.5002 12.382 10.607 12.49 10.7595C12.5351 10.8225 12.64 10.9651 12.7234 11.0775C12.9728 11.4127 13.0296 11.4954 13.129 11.6763C13.1944 11.7955 13.2555 11.9436 13.35 12.2165C13.3691 12.2727 13.387 12.3208 13.3901 12.3233C13.3926 12.3264 13.7333 12.0745 14.147 11.7646C14.8952 11.2034 14.9563 11.1577 15.1866 10.988C15.2527 10.9392 15.3378 10.8768 15.3749 10.849C16.0126 10.3774 16.9133 9.75942 17.3609 9.48593C17.7239 9.2643 18.1178 9.06242 18.4839 8.91056L18.5549 8.88093L18.5413 8.81795C18.4518 8.41174 18.3505 7.82772 18.3141 7.50608C18.2734 7.1511 18.269 6.76525 18.3018 6.42571C18.3789 5.61204 18.674 4.86504 19.1735 4.21867C19.3914 3.93715 19.6846 3.63774 19.9711 3.40623C20.2372 3.19015 20.5298 3.03087 20.8663 2.91914C21.17 2.81727 21.4416 2.76974 21.7676 2.76109C22.2257 2.74813 22.6837 2.84444 23.0714 3.0352C23.1356 3.06607 23.1381 3.06607 23.1381 3.02964C23.1381 2.99383 23.1702 2.8469 23.1943 2.77467C23.319 2.39377 23.5962 2.17893 24.0487 2.11287C24.1889 2.09188 24.4414 2.09806 24.6383 2.12645C25.2735 2.21782 26.065 2.55428 26.6225 2.97038L26.6842 3.01606L26.7521 2.98581C27.2997 2.74381 27.9615 2.60243 28.6536 2.58083L28.7888 2.5765L28.598 2.39068C28.0424 1.8505 27.6176 1.48008 27.1725 1.14795C26.7379 0.823219 26.3922 0.619493 26.0736 0.499109C25.6427 0.336744 25.2871 0.247228 24.4006 0.0799244C24.0339 0.0107811 23.7215 -0.0120607 23.3727 0.00584195L23.3727 0.00584195Z" transform="translate(0.1289978 0)" id="Shape" fill="#048C4C" fill-rule="evenodd" stroke="none" />
    <path d="M0.822732 0.00216134C0.68321 0.0182162 0.591225 0.0379697 0.504795 0.0706913C0.212788 0.179961 0.053509 0.409 0.00720748 0.785586C-0.00699045 0.904119 0.000419005 1.13007 0.0238772 1.29182C0.101664 1.82953 0.36404 2.49195 0.703584 3.00806C0.826437 3.1945 0.915335 3.30748 1.03819 3.43342C1.17277 3.57047 1.31476 3.67542 1.47713 3.75815C1.5901 3.81556 1.67406 3.84766 1.80556 3.88532C1.81297 3.88779 1.82408 3.87359 1.84816 3.83099C2.07843 3.42601 2.36488 3.05498 2.72109 2.69938C3.06496 2.35613 3.42365 2.08203 3.84591 1.83879L3.88975 1.81348L3.8774 1.76903C3.85703 1.69557 3.81196 1.58136 3.76998 1.49554C3.60144 1.15168 3.33166 0.890536 2.84703 0.60038C2.57231 0.436163 2.22907 0.279356 1.91236 0.173788C1.67406 0.0947645 1.45243 0.0422894 1.23019 0.0138935C1.15734 0.00401521 0.873975 -0.0040122 0.822732 0.00216134L0.822732 0.00216134ZM1.16845 0.952246C1.38082 1.0325 1.64196 1.13189 1.74876 1.17264C1.85556 1.21339 2.02225 1.27636 2.11917 1.3134C2.2161 1.35044 2.40192 1.42082 2.5328 1.47082C2.66368 1.52083 2.80197 1.57269 2.83962 1.58689C2.8779 1.60108 2.90938 1.61405 2.90938 1.6159C2.90938 1.61775 2.83098 1.69739 2.73529 1.79308L2.56058 1.96718L2.3229 1.8721C1.63578 1.59738 1.08202 1.3776 1.08202 1.38007C1.08202 1.38131 1.21413 1.71468 1.37588 2.12028L1.66974 2.85863L1.49626 3.03211C1.38637 3.142 1.32093 3.20312 1.31723 3.19942C1.31414 3.19571 1.16783 2.81542 0.992501 2.35364C0.816555 1.89186 0.644314 1.43748 0.608508 1.34427C0.5727 1.25104 0.535041 1.15041 0.524548 1.12078L0.504791 1.06646L0.637522 0.933726C0.710372 0.860879 0.77334 0.801609 0.776427 0.803463C0.780132 0.804696 0.956077 0.871372 1.16845 0.952246L1.16845 0.952246Z" transform="translate(23.444489 2.2909698)" id="Shape" fill="#048C4C" fill-rule="evenodd" stroke="none" />
    <path d="M2.73796 0.00578769C2.21507 0.0545611 1.57302 0.281746 1.02172 0.61203C0.464251 0.946637 0.171626 1.2726 0.0253121 1.72265C0.0117291 1.76587 0 1.80476 0 1.80908C0 1.8134 0.0148159 1.82513 0.0327215 1.83501C0.24509 1.95107 0.542038 2.15356 0.755025 2.32766C1.03715 2.55855 1.34398 2.86599 1.5687 3.14442C1.74649 3.36419 1.9138 3.60805 2.04035 3.83277C2.0564 3.86178 2.0706 3.88648 2.07184 3.88771C2.07307 3.88894 2.11073 3.87783 2.15518 3.86363C2.45398 3.76918 2.70771 3.60126 2.92008 3.35926C3.33 2.89254 3.70474 2.11035 3.83623 1.44916C3.93625 0.946637 3.89118 0.54968 3.70782 0.305825C3.58003 0.136053 3.37013 0.0341896 3.08738 0.00578769C3.01454 -0.0022367 2.82007 -0.00161875 2.73796 0.00578769L2.73796 0.00578769ZM3.21824 0.936137L3.35282 1.07072L3.12934 1.65659C3.0071 1.97947 2.82498 2.45791 2.72497 2.72091C2.62496 2.9839 2.54162 3.20059 2.54038 3.20244C2.53606 3.20615 2.19158 2.8629 2.19158 2.85487C2.19158 2.8487 2.24344 2.7172 2.56508 1.90971C2.66941 1.64794 2.75954 1.42138 2.76572 1.40594L2.77683 1.37754L2.56323 1.46274C2.44531 1.50904 2.11256 1.64177 1.82302 1.75722L1.29765 1.9665L1.12294 1.79179C1.02663 1.69548 0.949466 1.61584 0.950699 1.61461C0.953167 1.61214 3.07254 0.804024 3.08057 0.80217C3.08242 0.80217 3.14416 0.862054 3.21824 0.936137L3.21824 0.936137Z" transform="translate(30.823517 2.2904205)" id="Shape" fill="#048C4C" fill-rule="evenodd" stroke="none" />
    <path d="M4.40624 0.00615244C3.79692 0.0327005 3.24315 0.145057 2.74494 0.343846L2.64123 0.384592L2.71407 0.459293C2.96225 0.713023 3.13264 1.03035 3.20796 1.37853C3.21537 1.41187 3.22031 1.44027 3.21969 1.44089C3.21845 1.4415 3.18326 1.46002 3.14067 1.48225C2.5264 1.80327 1.91028 2.33975 1.4485 2.95649C1.32565 3.1207 1.17686 3.35407 1.07932 3.5368C1.05463 3.58249 1.0324 3.62261 1.02932 3.6257C1.02685 3.62817 0.997216 3.62447 0.963262 3.61706C0.729282 3.56397 0.518149 3.47568 0.330474 3.35098L0.276763 3.31517L0.266885 3.34727C0.24466 3.42136 0.187247 3.66583 0.158848 3.8072C0.0884703 4.15724 0.0427867 4.5184 0.0168567 4.92894C-0.00351482 5.24687 -0.00598363 6.45071 0.012537 6.65135C0.0613073 7.16684 0.188483 7.47182 0.520618 7.86816C0.775584 8.17251 1.12377 8.50835 1.48431 8.79851C1.66396 8.94297 1.95843 9.15966 1.96584 9.15287C1.96708 9.15102 1.97387 9.1183 1.98066 9.07941C2.03128 8.77752 2.15722 8.48983 2.33749 8.26388L2.37577 8.21573L2.36897 8.18116C2.36589 8.16202 2.3628 8.11386 2.3628 8.07497C2.3628 7.90828 2.31897 7.77185 2.21649 7.6169C2.15043 7.51812 2.06647 7.4212 1.87139 7.22179C1.65717 7.00263 1.57876 6.91743 1.49419 6.81187C1.25465 6.51306 1.12562 6.22847 1.07253 5.87966C1.05586 5.76977 1.04907 5.51666 1.05957 5.39627C1.07809 5.18823 1.12748 5.02771 1.2102 4.90424C1.24292 4.85547 1.3133 4.78324 1.3596 4.7499C1.44418 4.6894 1.56456 4.64187 1.69297 4.61779C1.80471 4.59742 1.89423 4.59063 2.05721 4.59001C2.22884 4.58939 2.27637 4.59557 2.40602 4.63261C2.5264 4.66718 2.67457 4.73694 2.78507 4.81102L2.82397 4.83695L2.85668 4.80793C2.93447 4.73756 3.06041 4.69311 3.29315 4.65421C3.42589 4.63199 3.45799 4.6215 3.67715 4.52642C3.86483 4.44493 3.98274 4.39801 4.0667 4.37147C4.50008 4.23318 4.88531 4.24059 5.34215 4.39554C5.40327 4.41591 5.51686 4.45851 5.59465 4.49061C5.87863 4.60668 5.91505 4.61779 6.04285 4.63261C6.33918 4.66594 6.49167 4.71656 6.5534 4.80176L6.57069 4.82584L6.6139 4.79806C6.76207 4.70237 6.92813 4.63569 7.09791 4.60297C7.16026 4.59124 7.18866 4.58939 7.32633 4.59001C7.71341 4.59186 7.93751 4.65668 8.09431 4.81287C8.21902 4.93696 8.28817 5.10303 8.3178 5.35244C8.33076 5.46356 8.33076 5.70001 8.31718 5.8241C8.28076 6.16735 8.16408 6.4717 7.96467 6.74519C7.86898 6.87607 7.7949 6.95756 7.5387 7.21623C7.39918 7.35699 7.26336 7.49898 7.23681 7.53108C7.17507 7.60578 7.11643 7.6953 7.08618 7.76074C7.03741 7.86692 7.02506 7.92557 7.01827 8.07744C7.01394 8.17251 7.01086 8.20091 7.00036 8.22746L6.9874 8.26018L7.02629 8.31389C7.08618 8.39785 7.11951 8.45341 7.16643 8.54478C7.25718 8.72443 7.30163 8.86518 7.34917 9.12447L7.35411 9.15287L7.45288 9.07879C7.92578 8.72319 8.35237 8.32191 8.70303 7.90335C9.13703 7.38415 9.29815 7.00386 9.35125 6.37046C9.37285 6.10623 9.3815 5.29503 9.36483 5.01228C9.32841 4.39369 9.25864 3.91154 9.13764 3.44049L9.12159 3.37814L9.08332 3.40098C8.99318 3.45593 8.86169 3.51581 8.74007 3.55841C8.68019 3.57878 8.53758 3.61706 8.48695 3.62632L8.46534 3.63002L8.41657 3.53865C8.19556 3.12564 7.90232 2.73548 7.53623 2.37C7.16458 1.99774 6.76515 1.69832 6.34659 1.47731C6.29288 1.44953 6.27682 1.4378 6.27682 1.42854C6.27682 1.42175 6.28485 1.38224 6.29535 1.34087C6.37437 1.01615 6.52068 0.74204 6.74601 0.494483C6.78429 0.452501 6.81392 0.417314 6.8133 0.416693C6.80775 0.412991 6.68737 0.361752 6.61328 0.332735C5.99655 0.0876444 5.21127 -0.0290349 4.40624 0.00615244L4.40624 0.00615244Z" transform="translate(24.330627 2.7654572)" id="Shape" fill="#048C4C" fill-rule="evenodd" stroke="none" />
    <path d="M3.56522 0.0567978C3.3973 0.17471 3.12937 0.351274 3.04355 0.40128C2.8781 0.49697 2.67808 0.587101 2.50954 0.642048C2.17494 0.7507 1.92182 0.776015 1.02481 0.790213C0.527837 0.798237 0.38523 0.805029 0.122236 0.834042C0.0135815 0.84639 0 0.848861 0 0.858737C0 0.882816 0.0246941 1.06246 0.0370412 1.12667C0.100629 1.46251 0.250028 1.77798 0.428444 1.95392C0.550063 2.07369 0.701314 2.15271 0.885286 2.19284C0.938996 2.20457 0.966776 2.20642 1.08963 2.20704C1.21372 2.20704 1.24026 2.20519 1.30262 2.19284C1.45325 2.16197 1.6008 2.10209 1.76872 2.00331C2.41324 1.62179 2.94478 1.07296 3.52818 0.185206C3.6393 0.0160488 3.6498 0 3.64733 0C3.64609 0.000614942 3.60967 0.0259301 3.56522 0.0567978L3.56522 0.0567978Z" transform="translate(14.383362 2.789505)" id="Shape" fill="#048C4C" fill-rule="evenodd" stroke="none" />
    <path d="M3.14542 0.00420814C2.7071 0.0431002 2.29285 0.170894 1.94281 0.377089C1.71316 0.511674 1.50017 0.683913 1.24088 0.942586C0.684645 1.49944 0.315468 2.13346 0.132731 2.84712C0.0388951 3.21383 0 3.53547 0 3.94787C0 4.30902 0.0259301 4.57078 0.111742 5.07886C0.211754 5.66843 0.345718 6.26418 0.620441 7.33838C0.855653 8.25576 0.992707 8.82681 1.0458 9.11018C1.07728 9.27872 1.09518 9.4096 1.13655 9.78001C1.18841 10.2492 1.20693 10.3819 1.24767 10.5795C1.37361 11.1956 1.6613 11.6833 2.10024 12.0253C2.56696 12.3896 3.20962 12.5933 4.08688 12.6569C4.47643 12.6847 4.93883 12.6698 5.55618 12.61C6.59457 12.5093 8.02066 12.2655 9.05349 12.0117C9.11152 11.9975 9.16091 11.9846 9.16338 11.9827C9.16647 11.9809 9.14671 11.9722 9.12017 11.9624C8.93064 11.8963 8.8226 11.8339 8.51393 11.6111C8.31514 11.4679 8.13364 11.2839 8.05029 11.1419C8.00337 11.061 7.97065 10.9585 7.97004 10.8875C7.97004 10.8733 7.95584 10.8357 7.93053 10.7826C7.80459 10.5165 7.72309 10.2418 7.69161 9.97139C7.6805 9.87508 7.68112 9.67691 7.69285 9.64111C7.70087 9.61703 7.70087 9.60283 7.6947 9.53924C7.69038 9.4985 7.68482 9.40219 7.68235 9.32564L7.67803 9.18673L7.58975 9.12623C6.97363 8.7052 6.34331 8.1255 5.98463 7.65014C5.83152 7.44765 5.71114 7.21614 5.64879 7.005C5.64138 6.97969 5.62162 6.92598 5.60495 6.88586C5.57162 6.80498 5.53273 6.68768 5.51359 6.61298C5.47655 6.46297 5.48025 6.32653 5.52532 6.24998C5.53643 6.23084 5.53705 6.20429 5.54075 5.653C5.54507 4.95045 5.55125 4.76833 5.5815 4.43372C5.62471 3.95342 5.71546 3.45089 5.83029 3.05394L5.84511 3.0027L5.7667 2.92491C5.33332 2.49276 4.90179 1.66242 4.73449 0.937649C4.69066 0.749356 4.65917 0.525254 4.65361 0.36536L4.65176 0.32276L4.56533 0.277695C4.2974 0.139408 4.00848 0.0529785 3.67943 0.0128505C3.58251 0.00112137 3.24296 -0.00443723 3.14542 0.00420814L3.14542 0.00420814Z" transform="translate(18.599915 2.9519806)" id="Shape" fill="#048C4C" fill-rule="evenodd" stroke="none" />
    <path d="M2.36655 0.00644785C2.29555 0.0132424 2.18629 0.0329959 2.10726 0.0527494C1.96959 0.0879398 1.85476 0.131155 1.54547 0.265122C1.38496 0.334881 1.32199 0.354638 1.19296 0.376245C0.982445 0.412051 0.870086 0.448477 0.83428 0.492307C0.8065 0.526261 0.847242 0.593555 1.01516 0.793574C1.22383 1.04237 1.29482 1.16337 1.3226 1.31586C1.33434 1.37883 1.33989 1.80172 1.33248 2.01223C1.30347 2.79566 1.12196 3.25497 0.721303 3.55809C0.456459 3.75873 0.293478 3.94764 0.171858 4.19458C0.0792552 4.38226 0.0243113 4.58475 0.00517275 4.81193C-0.00161874 4.89095 -0.00161874 5.09098 0.00455479 5.16691L0.00825952 5.21321L0.0360404 5.21692C0.0965429 5.22556 0.157042 5.25705 0.328665 5.3694C0.570051 5.52683 0.675002 5.57807 0.789212 5.59227C0.828722 5.59721 0.909596 5.59165 0.917623 5.58363C0.919474 5.58178 0.907745 5.56757 0.891693 5.55152C0.833045 5.49226 0.783656 5.40336 0.755257 5.30458C0.731181 5.22247 0.721303 5.13604 0.721303 5.01319L0.721303 4.90145L0.878728 4.90145L1.03615 4.90145L1.03615 4.96751C1.03677 5.08295 1.04727 5.14716 1.07628 5.20395C1.109 5.26878 1.17259 5.31137 1.26519 5.33113C1.32878 5.34471 1.53127 5.33977 1.64733 5.32125C1.85662 5.28853 1.91465 5.28297 2.04553 5.28174C2.14986 5.28112 2.18505 5.28359 2.22703 5.29223C2.29062 5.30582 2.34988 5.32804 2.38939 5.35212L2.41903 5.37064L2.56163 5.37064C2.70301 5.37064 2.70363 5.37064 2.72647 5.35521C2.73882 5.34656 2.7703 5.33175 2.79561 5.32187C2.93637 5.26754 3.10429 5.26507 3.41791 5.31261C3.60249 5.34101 3.7735 5.3478 3.85808 5.33051C3.98525 5.3052 4.05563 5.24161 4.08279 5.12864C4.08773 5.10703 4.09391 5.04715 4.09638 4.99529L4.10008 4.90145L4.25751 4.90145L4.41493 4.90145L4.41123 5.0385C4.40876 5.14037 4.40444 5.19161 4.39579 5.23482C4.36863 5.3657 4.32418 5.45954 4.2501 5.54165C4.23466 5.55893 4.2217 5.57437 4.2217 5.57684C4.2217 5.58301 4.28529 5.59906 4.31121 5.59906C4.35381 5.59906 4.43098 5.57622 4.49642 5.54412C4.55384 5.51634 4.63039 5.46695 4.81436 5.33977C4.89153 5.28606 4.97116 5.24408 5.00697 5.23791L5.0292 5.23359L5.03352 5.15642C5.04155 5.02554 5.03352 4.78724 5.01808 4.68846C4.98722 4.48721 4.94462 4.34768 4.86375 4.18223C4.76497 3.98097 4.63594 3.81984 4.4316 3.64205C4.28837 3.51734 4.20009 3.41857 4.11366 3.28707C3.92784 3.00432 3.81486 2.63267 3.7772 2.18509C3.77412 2.14249 3.76918 2.09249 3.76794 2.07458C3.76609 2.05606 3.76177 1.9505 3.75868 1.83999C3.75128 1.57823 3.7593 1.31462 3.77659 1.24054C3.80128 1.1325 3.85375 1.01706 3.92907 0.904083C3.97723 0.831851 4.00501 0.796046 4.11552 0.663315C4.21059 0.549104 4.25071 0.492307 4.25627 0.465144C4.25998 0.446623 4.25874 0.444769 4.22725 0.429956C4.16429 0.400939 4.05625 0.377481 3.90685 0.360812C3.74016 0.342291 3.70065 0.33118 3.42222 0.21882C3.12528 0.0996719 2.97958 0.0533704 2.80796 0.0249685C2.65856 0.000274313 2.50237 -0.00651417 2.36655 0.00644785L2.36655 0.00644785ZM2.77032 0.976912L3.40249 0.975676L3.39817 1.04173C3.39631 1.07816 3.39076 1.12261 3.38644 1.14113L3.37903 1.17447L3.29568 1.172C3.25 1.17076 2.8728 1.17014 2.45794 1.17014C1.84923 1.17076 1.70291 1.16953 1.70291 1.16335C1.70291 1.15903 1.70723 1.1331 1.71217 1.10656C1.71711 1.08001 1.72143 1.04544 1.72143 1.02939C1.72143 1.01334 1.72452 0.992963 1.72761 0.984321L1.73378 0.967651L1.93627 0.97321C2.0474 0.975676 2.42275 0.97753 2.77032 0.976912L2.77032 0.976912ZM2.86477 1.35225L3.40557 1.35102L3.40249 1.37757C3.40063 1.39238 3.39446 1.43436 3.3889 1.4714L3.37903 1.53869L2.54128 1.53993C1.97146 1.53993 1.70291 1.53808 1.70291 1.53376C1.70291 1.53067 1.70723 1.51215 1.71217 1.49363C1.71711 1.47511 1.72143 1.44239 1.72143 1.42201C1.72143 1.40103 1.72329 1.3751 1.72575 1.36398L1.72946 1.34361L2.0264 1.34855C2.19 1.35164 2.56659 1.35287 2.86477 1.35225L2.86477 1.35225Z" transform="translate(26.472137 7.2286224)" id="Shape" fill="#048C4C" fill-rule="evenodd" stroke="none" />
    <path d="M0.636652 0.00555558C0.351437 0.0283989 0.184751 0.11236 0.0970855 0.275958C-0.0115694 0.479685 -0.0319408 0.901955 0.050784 1.23903C0.0977035 1.42918 0.185984 1.6187 0.309455 1.79465C0.406998 1.93417 0.486019 2.02369 0.734811 2.27989C0.935451 2.48547 0.961999 2.51448 1.02929 2.59536C1.20215 2.80279 1.28487 2.98676 1.30957 3.21703L1.31327 3.25222L1.35155 3.21827C1.37254 3.19913 1.43613 3.14727 1.49292 3.10344C1.5491 3.05899 1.61825 2.99911 1.64603 2.97009C1.69418 2.9207 1.69974 2.91144 1.75406 2.7997C1.84543 2.61141 1.90593 2.45336 1.96396 2.25149C2.03373 2.00949 2.0436 1.90639 2.0436 1.40325C2.0436 0.999496 2.04484 1.00938 1.98557 0.894545C1.94544 0.817376 1.89852 0.752554 1.77505 0.60501C1.62565 0.426592 1.59108 0.37844 1.56021 0.305593C1.54169 0.261143 1.53305 0.252497 1.44539 0.193849C1.29537 0.093839 1.12622 0.026548 0.971259 0.00555558C0.916315 -0.00185086 0.729873 -0.00185086 0.636652 0.00555558L0.636652 0.00555558ZM1.12495 0.279669C1.1836 0.296953 1.22558 0.348813 1.2262 0.403139C1.2262 0.471048 1.19101 0.51735 1.12928 0.529697C1.07742 0.540808 1.02433 0.534635 0.985432 0.513645C0.945304 0.492038 0.924314 0.461788 0.919377 0.419809C0.907645 0.319179 1.01383 0.246329 1.12495 0.279669L1.12495 0.279669ZM1.09965 0.667372C1.1441 0.666757 1.18917 0.664285 1.2009 0.662434L1.22189 0.65873L1.21818 0.706885C1.20398 0.876657 1.20028 1.01433 1.2046 1.23719L1.20892 1.47919L1.13855 1.48104C1.10027 1.48228 1.03853 1.48228 1.00087 1.48043L0.932965 1.47734L0.934819 1.21497C0.936669 0.980372 0.931732 0.81245 0.92 0.697625L0.91568 0.658112L0.967537 0.66367C0.995936 0.666136 1.05582 0.66799 1.09965 0.667372L1.09965 0.667372Z" transform="translate(25.572144 7.5443726)" id="Shape" fill="#048C4C" fill-rule="evenodd" stroke="none" />
    <path d="M1.06174 0.00634536C0.900614 0.0335083 0.742574 0.0989485 0.589468 0.202666C0.457973 0.290946 0.446859 0.302675 0.236343 0.561346C0.107314 0.720622 0.0319981 0.862614 0.00853686 0.99473C-0.000723462 1.04473 -0.00319228 1.48553 0.00483514 1.64974C0.00915481 1.74852 0.0245887 1.93126 0.0313802 1.97324C0.0400225 2.02448 0.0924977 2.21709 0.12707 2.32328C0.177694 2.47885 0.23943 2.63072 0.308572 2.77332C0.424018 3.01224 0.445008 3.04064 0.601815 3.17769C0.647499 3.21721 0.696887 3.26103 0.71047 3.274L0.7364 3.29808L0.74072 3.23573C0.755536 3.01286 0.83641 2.83012 1.01297 2.61899C1.04878 2.57639 1.18275 2.43625 1.31116 2.30784C1.53711 2.08189 1.61428 1.99855 1.69206 1.89607C1.89517 1.62875 2.00259 1.35897 2.04087 1.02251C2.0526 0.918176 2.05137 0.667532 2.0384 0.573078C2.01 0.371202 1.96432 0.259461 1.87048 0.166239C1.82726 0.123643 1.80936 0.111296 1.75565 0.0847475C1.63527 0.0260989 1.50748 0.00449149 1.26547 0.000789779C1.15435 -0.00106108 1.09755 0.000171822 1.06174 0.00634536L1.06174 0.00634536ZM1.11115 0.410711C1.21178 0.431701 1.29327 0.47862 1.36859 0.558876C1.47909 0.676791 1.52848 0.816311 1.51984 0.984851C1.51181 1.13857 1.45995 1.25402 1.34945 1.36205C1.24882 1.46083 1.14325 1.50405 1.00311 1.50405C0.862974 1.50405 0.757405 1.46083 0.656775 1.36205C0.5438 1.25155 0.492561 1.13487 0.486387 0.976208C0.481447 0.850266 0.504908 0.75211 0.564172 0.652712C0.595039 0.600237 0.66542 0.524304 0.716659 0.48788C0.825932 0.410093 0.971011 0.381697 1.11115 0.410711L1.11115 0.410711Z" transform="translate(30.41925 7.5454254)" id="Shape" fill="#048C4C" fill-rule="evenodd" stroke="none" />
    <path d="M0.18369 0.00765965C0.116399 0.0218606 0.0620731 0.0675412 0.0293515 0.136071C-0.0373216 0.276209 0.0139176 0.450922 0.139242 0.512657C0.175666 0.530557 0.186159 0.533029 0.233079 0.533029C0.278147 0.533029 0.290494 0.530557 0.320126 0.515744C0.391122 0.481168 0.447302 0.399062 0.462118 0.30893C0.476316 0.222501 0.446684 0.125575 0.387417 0.0663083C0.351612 0.0311209 0.321362 0.0144512 0.273207 0.00580578C0.23061 -0.00221862 0.227523 -0.00221862 0.18369 0.00765965L0.18369 0.00765965Z" transform="translate(31.18924 8.229385)" id="Shape" fill="#048C4C" fill-rule="evenodd" stroke="none" />
    <path d="M4.76752 0.00351482C4.27055 0.0294449 3.79457 0.102906 3.46613 0.203537C3.10251 0.315279 2.64382 0.582592 2.17772 0.954855C1.84558 1.21908 1.54061 1.55184 1.23193 1.98522C1.0529 2.23586 0.788052 2.66061 0.629393 2.94953C0.297873 3.55268 0.0885901 4.21078 0.0231508 4.84974C-0.00771692 5.15719 -0.00771692 5.53995 0.0231508 5.78195C0.0626616 6.08816 0.162055 6.41536 0.312073 6.73391C0.350348 6.8154 0.338001 6.80367 0.498513 6.91109C0.670755 7.02715 0.855344 7.13828 1.014 7.22162C1.04981 7.24076 1.09982 7.26669 1.12513 7.28027C1.15044 7.29385 1.2202 7.3278 1.27947 7.35558C1.93016 7.66303 2.6148 7.84515 3.31365 7.89577C3.47539 7.9075 3.96496 7.90441 4.10633 7.89083C4.49403 7.85317 4.81937 7.7902 5.1441 7.68957C5.31202 7.63772 5.37684 7.60129 5.47439 7.5019C5.69231 7.28274 5.83554 6.8864 5.9232 6.26349L5.94357 6.12026L6.03309 6.12458C6.08248 6.12705 6.12446 6.13014 6.12755 6.13199C6.13002 6.13322 6.13187 6.15298 6.13187 6.17582C6.13187 6.29497 6.15841 6.47092 6.19607 6.60056C6.2788 6.88825 6.45289 7.15741 6.69613 7.3741C6.98876 7.63586 7.37275 7.84947 7.87713 8.03159C7.9401 8.05443 7.99998 8.07233 8.01295 8.07233C8.08518 8.07295 8.18519 8.11617 8.26853 8.18346C8.35126 8.25013 8.42472 8.33656 8.7371 8.73908C9.07973 9.18048 9.23345 9.36075 9.38779 9.50336C9.62856 9.72622 9.94588 9.88859 10.299 9.96946C10.4484 10.004 10.5923 10.0219 10.8361 10.0361C10.9966 10.0454 11.3238 10.0405 11.4504 10.0263C11.7257 9.99663 12.0449 9.92625 12.6295 9.76697C12.9759 9.67252 13.1481 9.62868 13.3598 9.58176C13.3734 9.57868 13.3728 9.57744 13.345 9.53793C13.2321 9.37989 13.25 9.20888 13.395 9.0638C13.616 8.84279 14.134 8.67117 14.7779 8.60573C14.9322 8.58967 15.2366 8.58967 15.3212 8.60573C15.4119 8.6224 15.5231 8.6545 15.6225 8.69154C15.7083 8.72426 15.7101 8.72488 15.7157 8.71191C15.7885 8.5335 15.8904 8.43719 16.1237 8.32483C16.3046 8.2384 16.554 8.15876 16.7417 8.12728C16.8448 8.10999 16.9887 8.10876 17.0671 8.12419C17.1337 8.13716 17.2146 8.16556 17.2523 8.18963L17.28 8.20691L17.2967 8.13839C17.377 7.80872 17.5196 7.62846 17.7023 7.62537C17.7289 7.62537 17.7505 7.62413 17.7505 7.62413C17.7505 7.62352 17.7548 7.59944 17.7597 7.57043C17.7708 7.5056 17.7974 7.43214 17.827 7.3809C17.8394 7.36053 17.8492 7.342 17.8492 7.34015C17.8492 7.3346 17.7869 7.24384 17.7486 7.19322C17.6313 7.03888 17.4492 6.85306 17.2486 6.6839C17.0547 6.52092 16.9992 6.48265 16.843 6.40301C16.5701 6.2641 16.2552 6.16039 15.9478 6.10853C15.8848 6.09804 15.8293 6.09433 15.6453 6.09063C15.2656 6.08198 15.1378 6.05791 14.8489 5.94246C14.6051 5.84492 14.5526 5.83442 14.2964 5.83442C14.1173 5.83442 14.105 5.83566 13.9352 5.85788C13.3333 5.93691 12.9413 6.00728 12.4659 6.12149C12.2585 6.17088 12.2017 6.17952 12.0708 6.17952C11.951 6.17952 11.8838 6.17026 11.7776 6.1394C11.7016 6.11717 11.5701 6.05235 11.5121 6.00913C11.4102 5.93197 11.3176 5.82763 11.2559 5.72083C11.1855 5.59736 11.175 5.56526 10.9349 4.71701C10.7336 4.00644 10.6157 3.62553 10.4811 3.25388C10.3416 2.86804 10.2793 2.76 9.92859 2.29081C9.84525 2.17845 9.74277 2.03955 9.70203 1.98152C9.62115 1.86792 9.54213 1.76853 9.47361 1.69507C9.45015 1.66975 9.42545 1.64197 9.41866 1.63457C9.39829 1.60925 9.24951 1.47282 9.17234 1.40861C8.95997 1.23143 8.67166 1.04252 8.29878 0.835707C7.7765 0.546169 7.68143 0.499867 7.43448 0.417142C7.12087 0.312192 6.51525 0.147357 6.23373 0.0905593C6.06828 0.0572258 5.83369 0.027591 5.58551 0.0090704C5.46821 0.000428048 4.90272 -0.00327668 4.76752 0.00351482L4.76752 0.00351482Z" transform="translate(2.7756042 8.903931)" id="Shape" fill="#048C4C" fill-rule="evenodd" stroke="none" />
    <path d="M5.03946 0.0419909C4.73202 0.175955 4.45359 0.315481 4.17887 0.474757C3.73993 0.728487 2.98367 1.23966 2.16938 1.83232C1.64031 2.21755 -0.00123441 3.44794 0 3.45843C0.00061645 3.46275 0.0222238 3.53251 0.047536 3.614C0.116063 3.83131 0.174712 4.03133 0.350657 4.64992C0.437703 4.9549 0.521046 5.24073 0.535864 5.2858C0.584016 5.43149 0.643283 5.53151 0.73712 5.62349C0.884051 5.76857 1.07296 5.83524 1.30509 5.82537C1.40572 5.82104 1.41559 5.81919 1.64154 5.76548C2.0243 5.67473 2.39225 5.60559 2.79908 5.54694C2.9917 5.51916 3.22506 5.48952 3.32075 5.4815C3.39421 5.47533 3.39606 5.47471 3.54299 5.41544C4.34247 5.09503 5.11169 4.71289 5.87351 4.25729C5.95315 4.20975 6.0192 4.17024 6.01982 4.17024C6.02044 4.16962 6.01735 4.13999 6.01179 4.1048C6.00686 4.06899 5.98648 3.88996 5.96611 3.70661C5.92722 3.35965 5.90376 3.18 5.87659 3.03369C5.83338 2.80095 5.67287 2.12988 5.48457 1.39461C5.34937 0.867392 5.20553 0.285228 5.15923 0.0784142C5.14997 0.0345845 5.14071 -0.000605899 5.13886 9.04327e-06C5.137 9.04327e-06 5.09255 0.0191506 5.03946 0.0419909L5.03946 0.0419909Z" transform="translate(13.584503 9.068588)" id="Shape" fill="#048C4C" fill-rule="evenodd" stroke="none" />
    <path d="M0.774822 0.0469165C0.76803 0.12594 0.745805 0.263611 0.72358 0.369176C0.62789 0.817994 0.44207 1.16371 0.0525201 1.61623C0.0222705 1.65142 -0.00119069 1.68105 4.52162e-05 1.68167C0.000663171 1.68229 0.0420239 1.68908 0.0914121 1.69711C0.366134 1.7397 0.671723 1.8144 0.924837 1.90083C1.12548 1.96874 1.26191 2.02616 1.44527 2.11876C1.50577 2.14963 1.55639 2.1737 1.55762 2.17185C1.5638 2.16568 1.60948 2.06134 1.62491 2.01875C1.69653 1.81996 1.71134 1.57919 1.66443 1.35818C1.59405 1.02357 1.4039 0.676618 1.09584 0.32226C1.02855 0.245091 0.790255 0 0.782846 0C0.780377 0 0.776673 0.0209894 0.774822 0.0469165L0.774822 0.0469165Z" transform="translate(33.08423 9.222305)" id="Shape" fill="#048C4C" fill-rule="evenodd" stroke="none" />
    <path d="M1.99158 0.127806C1.67982 0.447594 1.27978 0.789611 0.941465 1.02606L0.891461 1.06125L0.887757 1.20756C0.885903 1.28843 0.880965 1.38351 0.87726 1.41931C0.870469 1.47549 0.871087 1.49093 0.880347 1.54155C0.900722 1.64897 0.885288 1.86936 0.843306 2.06568C0.801327 2.26385 0.716748 2.50647 0.624763 2.68983C0.604392 2.73119 0.600687 2.74477 0.5976 2.79293C0.584017 3.00221 0.384613 3.26335 0.0605025 3.49671L0 3.53992L0.0388951 3.54795C0.222865 3.58684 0.430297 3.64672 0.595746 3.7097C0.650075 3.73007 0.695141 3.74674 0.695759 3.74674C0.696377 3.74674 0.698228 3.73748 0.700082 3.72575C0.711193 3.65784 0.790831 3.56277 0.879114 3.51276C1.03407 3.4251 1.23533 3.37262 1.51931 3.34484C1.63537 3.33311 1.9101 3.33496 2.02554 3.34793C2.22247 3.37015 2.3478 3.40411 2.47929 3.46955C2.55399 3.50721 2.67314 3.58252 2.7497 3.64055C2.77254 3.65846 2.79353 3.67265 2.796 3.67204C2.79847 3.67204 2.80834 3.65537 2.81761 3.63561C2.89663 3.46893 3.12258 3.3257 3.49484 3.20655C3.87884 3.0837 4.14183 3.07259 4.34123 3.17136L4.4005 3.20038L4.41161 3.1479C4.42643 3.07444 4.4647 2.96023 4.49804 2.89047C4.59743 2.68057 4.74128 2.58735 4.90549 2.62562C4.92587 2.63056 4.94254 2.63426 4.94315 2.63365C4.94377 2.63303 4.95303 2.6034 4.96414 2.56759C5.00736 2.42807 5.04502 2.36819 5.12712 2.31201C5.13824 2.3046 5.137 2.30028 5.10613 2.20273C5.05489 2.0416 4.94007 1.72182 4.91969 1.68477C4.84623 1.55142 4.75795 1.41252 4.67769 1.3051C4.41285 0.950738 4.07515 0.664904 3.6677 0.451302C3.30346 0.260537 2.85958 0.119163 2.36817 0.0370533C2.27804 0.0216195 2.12493 -0.000602885 2.11938 1.20577e-05C2.11691 0.000633029 2.05949 0.0580458 1.99158 0.127806L1.99158 0.127806Z" transform="translate(30.810547 11.074982)" id="Shape" fill="#048C4C" fill-rule="evenodd" stroke="none" />
    <path d="M0 0.0740825C0 0.251264 0.0456837 0.407454 0.128412 0.509935C0.189529 0.585868 0.279664 0.640812 0.385847 0.667978C0.435853 0.68094 0.454992 0.682176 0.580314 0.681558C0.688969 0.681558 0.740208 0.678472 0.814908 0.667978C0.867383 0.660569 0.960605 0.646986 1.02172 0.638344C1.16989 0.617354 1.37732 0.611181 1.44091 0.625996C1.53289 0.647604 1.60698 0.704402 1.64463 0.781571C1.66315 0.81923 1.68229 0.891459 1.68847 0.945788L1.69217 0.981593L1.77428 0.981593L1.85639 0.981593L1.86009 0.939614C1.86873 0.846393 1.90331 0.763668 1.95701 0.709957C2.06196 0.605625 2.20272 0.59266 2.59906 0.651309C2.91145 0.696992 3.0769 0.696992 3.2158 0.650691C3.43867 0.57599 3.55596 0.373499 3.55596 0.0617354L3.55596 0L3.46707 0L3.37878 0L3.37446 0.0660581C3.36644 0.189529 3.33989 0.262376 3.28124 0.32658C3.24297 0.367326 3.18926 0.398193 3.11764 0.421037C3.07443 0.433999 3.06146 0.435235 2.92317 0.435235C2.7923 0.434617 2.76204 0.432766 2.66389 0.417332C2.49164 0.390784 2.43053 0.383378 2.32743 0.379055C2.06937 0.367944 1.92059 0.432148 1.8428 0.588337C1.82737 0.61859 1.81502 0.646371 1.81502 0.650691C1.81502 0.654395 1.81194 0.667978 1.80823 0.68094L1.80206 0.704402L1.77058 0.702548L1.73971 0.700697L1.72612 0.657482C1.68476 0.52722 1.60389 0.443259 1.48165 0.404985C1.35324 0.364239 1.18779 0.368562 0.86121 0.420419C0.74268 0.439557 0.500675 0.441408 0.438322 0.424124C0.371649 0.404985 0.321024 0.377204 0.280896 0.336458C0.216074 0.271636 0.188293 0.198171 0.180887 0.0697598L0.177182 0L0.0882835 0L0 0L0 0.0740825L0 0.0740825Z" transform="translate(27.261383 12.197952)" id="Shape" fill="#048C4C" fill-rule="evenodd" stroke="none" />
    <path d="M0.00349975 0.0159795C-0.00205584 0.0449933 -0.000822938 0.167231 0.00596856 0.237609C0.0294298 0.474054 0.104127 0.745072 0.207227 0.971642L0.229452 1.01918L0.291805 1.02227C0.3486 1.02535 0.36527 1.02905 0.462811 1.06301C0.864091 1.2013 0.886934 1.20747 1.01534 1.20871C1.08325 1.20932 1.10239 1.20685 1.1419 1.19513C1.24809 1.16179 1.27463 1.14141 1.47218 0.947566C1.65369 0.768533 1.70493 0.729023 1.83581 0.662965C1.97286 0.59382 2.1309 0.549991 2.30253 0.533321C2.34142 0.529616 2.38216 0.525296 2.39266 0.523443L2.4118 0.520974L2.40624 0.485168C2.38772 0.364784 2.33339 0.291935 2.24079 0.262921C2.18338 0.245015 1.97286 0.24872 1.82099 0.270327C1.55491 0.307987 1.51725 0.311691 1.40057 0.315396C1.30241 0.318483 1.26722 0.316629 1.21598 0.307987C1.1808 0.302431 1.1456 0.295022 1.1382 0.292553C1.1277 0.28823 1.10918 0.294404 1.05424 0.322803C0.972746 0.364166 0.913479 0.378982 0.833841 0.378982C0.732595 0.378982 0.628263 0.350583 0.509112 0.291317C0.424536 0.249338 0.381322 0.223408 0.231303 0.125867C0.111537 0.0474621 0.0584437 0.0165944 0.0214024 0.00239647C0.00905533 -0.00254116 0.00720447 -0.000690303 0.00349975 0.0159795L0.00349975 0.0159795Z" transform="translate(26.471405 12.633942)" id="Shape" fill="#048C4C" fill-rule="evenodd" stroke="none" />
    <path d="M2.28729 0.0172847C2.27001 0.026545 2.22865 0.053711 2.19469 0.0771693C1.89157 0.286452 1.78539 0.340781 1.64648 0.358066C1.54771 0.370413 1.47362 0.35251 1.37361 0.293243L1.31496 0.258053L1.26743 0.2704C1.19273 0.290157 1.13778 0.29633 1.03839 0.29633C0.927266 0.29633 0.871086 0.290775 0.642048 0.258053C0.444494 0.230272 0.273489 0.220397 0.208667 0.233977C0.133349 0.250029 0.0685268 0.296948 0.0370412 0.358066C0.0228433 0.385229 0 0.467953 0 0.490797C0 0.503762 0.00370472 0.504995 0.0543289 0.509317C0.229039 0.523515 0.421654 0.574758 0.56426 0.646371C0.698845 0.713662 0.782806 0.776016 0.956898 0.937761C1.09148 1.06309 1.15322 1.11 1.23162 1.14828C1.32422 1.19334 1.38287 1.20075 1.49029 1.18223C1.56005 1.16989 1.6329 1.14643 1.80576 1.08037C1.94528 1.02666 2.03295 1.00258 2.06813 1.00752C2.08542 1.00999 2.08727 1.00814 2.1169 0.942084C2.21013 0.73527 2.27186 0.528456 2.30643 0.311764C2.31508 0.25682 2.3268 0 2.32063 0C2.3194 0 2.30396 0.0080244 2.28729 0.0172847L2.28729 0.0172847Z" transform="translate(29.187561 12.654831)" id="Shape" fill="#048C4C" fill-rule="evenodd" stroke="none" />
    <path d="M2.13543 0.00337615C1.93479 0.0138694 1.78107 0.0490597 1.63907 0.116969C1.52919 0.169444 1.47609 0.212041 1.3125 0.375021C1.15754 0.528745 1.09087 0.584922 1.01617 0.621963C0.919857 0.670736 0.841455 0.688639 0.727245 0.688639C0.588955 0.688639 0.475981 0.662091 0.233977 0.574428C0.153721 0.545412 0.0685269 0.516398 0.0444507 0.509606L0 0.497259L0 0.511457C0 0.536151 0.0191386 0.591713 0.0438327 0.637397C0.214223 0.955952 0.848862 1.37761 1.32793 1.49058C1.4409 1.51713 1.50264 1.52268 1.71316 1.52577C2.03542 1.53009 2.8139 1.51774 2.917 1.50601C3.19049 1.47576 3.38866 1.41712 3.63745 1.29303C4.03564 1.09362 4.35852 0.810256 4.43878 0.589862C4.45915 0.534918 4.46162 0.515162 4.44927 0.515162C4.43692 0.515162 4.38815 0.532447 4.27209 0.578133C4.03256 0.672587 3.88563 0.704073 3.75907 0.688639C3.69054 0.679996 3.64239 0.663945 3.5646 0.625668C3.48249 0.584922 3.39792 0.520717 3.2658 0.397865C3.08924 0.234266 3.01824 0.181173 2.89848 0.123142C2.70278 0.0286883 2.43978 -0.0126756 2.13543 0.00337615L2.13543 0.00337615Z" transform="translate(26.761322 13.343491)" id="Shape" fill="#048C4C" fill-rule="evenodd" stroke="none" />
    <path d="M0.0544395 0.0335717C0.0346833 0.0774015 0.0081388 0.161362 0.000729477 0.206431C-0.00420806 0.238532 0.016781 0.339777 0.03777 0.381141C0.0674043 0.440408 0.110618 0.558939 0.130371 0.636726C0.165561 0.773162 0.172968 0.841071 0.173585 1.00591C0.173585 1.08616 0.174203 1.1516 0.174203 1.15098C0.179759 1.14419 0.202602 1.04233 0.210008 0.991705C0.242111 0.775631 0.189019 0.317555 0.103209 0.0650544C0.0760465 -0.0158167 0.0766644 -0.0152018 0.0544395 0.0335717L0.0544395 0.0335717Z" transform="translate(35.931396 13.582489)" id="Shape" fill="#048C4C" fill-rule="evenodd" stroke="none" />
    <path d="M0.225334 0.00952256C0.137672 0.0545881 0.0512421 0.248437 0.012965 0.485503L0 0.565759L0.0302497 0.64231C0.0963077 0.806526 0.122853 0.934317 0.127793 1.10841C0.131498 1.24114 0.124707 1.3288 0.101245 1.4387C0.0876653 1.5029 0.0592665 1.606 0.0456835 1.6381C0.0419818 1.64798 0.0493882 1.64613 0.0851965 1.62575C0.163599 1.58254 0.242004 1.52327 0.318555 1.44734C0.437703 1.33004 0.45499 1.29732 0.497587 1.11212C0.531542 0.96148 0.539566 0.884929 0.539566 0.709601C0.539566 0.578721 0.537715 0.534273 0.529073 0.487354C0.504997 0.361414 0.469806 0.252759 0.416713 0.147809C0.370412 0.0558241 0.342013 0.0138422 0.319791 0.00643579C0.29201 -0.00344247 0.246941 -0.00159161 0.225334 0.00952256L0.225334 0.00952256Z" transform="translate(35.373413 13.883713)" id="Shape" fill="#048C4C" fill-rule="evenodd" stroke="none" />
    <path d="M0.998281 0.00771692C0.819248 0.0354979 0.526622 0.128719 0.365491 0.20959C0.199423 0.292318 0.114229 0.375043 0.0821253 0.484312L0.0728649 0.517034L0.0932365 0.544197C0.144479 0.61087 0.175965 0.686188 0.192631 0.780027C0.208065 0.863985 0.206214 1.11401 0.190163 1.20785C0.167319 1.34058 0.109288 1.48566 0.0327368 1.60234C0.0135981 1.63136 -0.000599872 1.65543 1.80866e-05 1.65667C0.00125099 1.65728 0.0506395 1.66037 0.109906 1.66223C0.34697 1.67087 0.606878 1.63074 0.911851 1.53814C1.01866 1.50542 1.20571 1.43751 1.26004 1.41158C1.31869 1.3838 1.40018 1.3233 1.45327 1.26712C1.49772 1.22082 1.50328 1.21218 1.52736 1.1492C1.64527 0.845464 1.65638 0.568891 1.56378 0.291082C1.53229 0.196628 1.51007 0.154646 1.47179 0.112049C1.42981 0.0663656 1.3829 0.0373487 1.31746 0.0175952C1.27362 0.00463015 1.25202 0.00216134 1.16188 0.000307471C1.09088 -0.000925428 1.03779 0.00154338 0.998281 0.00771692L0.998281 0.00771692Z" transform="translate(33.68988 14.37323)" id="Shape" fill="#048C4C" fill-rule="evenodd" stroke="none" />
    <path d="M0.719045 0.00191416C0.705465 0.00314706 0.66225 0.00746974 0.623355 0.0111745C0.415924 0.030313 0.212197 0.0815522 0.104778 0.141437C0.00661967 0.196381 -0.0193104 0.245151 0.0134112 0.312442C0.0306959 0.347632 0.110334 0.428506 0.175774 0.476659C0.202937 0.496415 0.314061 0.600747 0.422715 0.707548C0.691882 0.973011 0.741888 1.01376 0.911043 1.10574C1.16045 1.24094 1.42406 1.3391 1.61544 1.36812C1.63952 1.37182 1.68953 1.37491 1.72533 1.37491C1.80188 1.37491 1.79756 1.378 1.8593 1.28539C1.93091 1.17797 1.9766 1.06994 1.9982 0.955108C2.01364 0.872383 2.01364 0.62606 1.99758 0.563088C1.97474 0.469249 1.93894 0.415541 1.8488 0.342077C1.75805 0.267376 1.71978 0.238977 1.64446 0.189589C1.47654 0.0803163 1.36603 0.0408063 1.14811 0.0130253C1.07526 0.00376502 0.778311 -0.00364142 0.719045 0.00191416L0.719045 0.00191416Z" transform="translate(31.694183 14.601288)" id="Shape" fill="#048C4C" fill-rule="evenodd" stroke="none" />
    <path d="M5.90561 0.0181559C5.42407 0.16879 4.16282 0.424374 3.17073 0.571921C1.95887 0.752807 1.08161 0.81022 0.420419 0.752189L0.330902 0.744162L0.298184 0.766387C0.24756 0.800342 0.195084 0.850348 0.167921 0.890476C0.138905 0.934309 0.111742 1.00345 0.0475375 1.19545L0 1.33621L0.0259301 1.36399C0.067294 1.40905 0.109273 1.52018 0.12162 1.61648L0.125325 1.65044L0.151252 1.6455C0.164835 1.64303 0.204345 1.64056 0.238299 1.64056C0.29633 1.64056 0.302503 1.6418 0.346954 1.66279C0.488946 1.7307 0.593278 1.91096 0.657482 2.20112L0.661187 2.21779L0.709342 2.19371C0.760581 2.1684 0.814907 2.14926 0.874174 2.13629C0.931589 2.12395 1.13655 2.1258 1.21804 2.13938C1.4088 2.17149 1.67673 2.2573 1.85885 2.34496C2.05394 2.43942 2.16938 2.53696 2.23173 2.66105C2.24347 2.68451 2.25087 2.69253 2.25581 2.68821C2.42373 2.5561 2.60523 2.45423 2.74167 2.41596C2.91762 2.36657 3.17999 2.33508 3.4152 2.33508C3.79179 2.33508 4.07083 2.40855 4.18813 2.53881C4.2085 2.56165 4.21715 2.56721 4.22147 2.56165C4.23505 2.54437 4.29431 2.44189 4.36099 2.31965C4.50792 2.05048 4.61904 1.88627 4.76844 1.71897C4.845 1.63254 4.92957 1.5566 5.11354 1.40782C5.19936 1.33868 5.30122 1.25163 5.34011 1.21459C5.52162 1.04049 5.68151 0.817629 5.8556 0.49722C5.93586 0.349673 5.99019 0.21756 6.02352 0.0879157C6.04143 0.0175379 6.04143 0.00951051 6.02785 0.00580879C5.99204 -0.00406947 5.96981 -0.00221862 5.90561 0.0181559L5.90561 0.0181559Z" transform="translate(22.136719 15.036331)" id="Shape" fill="#048C4C" fill-rule="evenodd" stroke="none" />
    <path d="M5.43916 0.081492C5.30766 0.617972 5.07986 0.961837 4.76871 1.09457C4.70389 1.12235 4.5156 1.17915 4.35879 1.21866C4.16309 1.26804 3.87663 1.3199 3.71056 1.33657C3.68834 1.33904 3.66303 1.34151 3.65377 1.34336C3.58524 1.35386 3.36238 1.3662 3.17408 1.36868C2.96171 1.37176 2.85306 1.36868 2.63637 1.35201C2.42832 1.33595 2.16162 1.29521 1.92333 1.24397C1.28745 1.10753 0.644168 0.851331 0.0792891 0.509317C0.0317524 0.4803 -0.00343644 0.462398 0.00026753 0.468571C0.010145 0.488328 0.111391 0.624764 0.160162 0.685263C0.250296 0.797005 0.378089 0.913066 0.586754 1.07173C1.25905 1.58351 2.09618 2.0206 2.92344 2.29223C3.36979 2.43917 3.85873 2.54905 4.18161 2.57498C4.31434 2.58548 4.60079 2.5793 4.72056 2.56264C4.95577 2.53053 5.09406 2.48979 5.38112 2.36755C5.74166 2.21321 6.34728 1.91009 6.77573 1.66809C6.97205 1.55758 7.13626 1.45325 7.127 1.44523C7.12392 1.44214 7.08379 1.42547 7.0381 1.40757C6.72387 1.28348 6.42198 1.11988 6.18615 0.945788C5.85155 0.698228 5.60523 0.388933 5.48299 0.0629713L5.45953 0L5.43916 0.081492L5.43916 0.081492Z" transform="translate(3.3510132 15.630463)" id="Shape" fill="#048C4C" fill-rule="evenodd" stroke="none" />
    <path d="M0.058926 0.0321036C0.0570736 0.0500063 0.0484305 0.12594 0.0397874 0.20064C0.031145 0.275341 0.0194152 0.39202 0.0138588 0.459929C0.00089453 0.628465 -0.00466181 1.06617 0.0045985 1.23533C0.0706551 2.42867 0.495395 3.43681 1.3424 4.40729C1.62145 4.7277 1.92148 5.01477 2.57032 5.58397C3.40684 6.31738 4.02913 6.75941 4.83292 7.19094C4.99714 7.2786 5.38978 7.47369 5.54288 7.54345C6.43311 7.94782 7.16158 8.13426 8.1049 8.1997C8.25245 8.21019 8.78522 8.21019 9.01858 8.1997C10.0878 8.15278 11.0781 8.0503 12.1794 7.87126C13.2734 7.69347 14.0994 7.50764 15.6459 7.09031C17.2998 6.64458 17.8863 6.49703 18.6215 6.3427C19.2339 6.21429 19.7334 6.13526 20.7181 6.00994C21.7021 5.88524 22.3182 5.88215 22.9307 5.9976C23.3091 6.06921 23.7301 6.20996 24.0573 6.37418C24.2746 6.48345 24.545 6.70693 25.3445 7.43912C25.7557 7.8157 25.9125 7.95399 25.9804 8.00091C26.0292 8.03425 26.1341 8.08117 26.1965 8.0966C26.2909 8.12068 26.3823 8.12809 26.4761 8.11944C26.87 8.0824 27.2262 7.81817 27.3596 7.46381C27.3818 7.40578 27.3849 7.38911 27.3917 7.30639C27.4071 7.1076 27.3855 6.88782 27.3293 6.66989C27.2453 6.3464 27.0817 6.02167 26.8397 5.6988C26.6484 5.44321 26.3594 5.14626 26.0792 4.91723C25.5174 4.45853 24.8253 4.08812 24.2148 3.9202C23.6548 3.76586 23.0714 3.66708 22.4553 3.6214C22.1781 3.60103 22.0343 3.59609 21.6435 3.59609C21.1613 3.59609 20.8496 3.60905 20.31 3.65165C19.413 3.72265 18.708 3.85105 17.1954 4.21962C16.4244 4.40729 16.1231 4.47767 15.6551 4.57768C15.239 4.66658 14.9958 4.72152 14.2105 4.90179C12.6801 5.25307 12.0523 5.38456 11.2997 5.50927C10.3545 5.66669 9.71681 5.72411 9.02784 5.71485C8.03329 5.70065 7.23258 5.54508 6.51583 5.22528C5.97071 4.98143 5.42929 4.6425 4.53659 3.98626C4.18779 3.72944 3.90751 3.52633 3.70625 3.38495C3.40066 3.17011 3.14014 2.70957 3.05371 2.23174C3.03828 2.14469 3.03149 1.94899 3.04198 1.87552C3.05062 1.81564 3.07717 1.7323 3.10186 1.68846C3.13026 1.63784 3.18027 1.59339 3.26176 1.54709C3.53586 1.3909 3.72601 1.23162 3.98653 0.938378L4.04827 0.868618L4.00258 0.835897L3.9569 0.803178L3.8717 0.796387C3.82479 0.792682 3.73403 0.785891 3.66921 0.780953C3.48154 0.766137 2.88826 0.716749 2.77714 0.70687C2.72096 0.701933 2.59193 0.690819 2.49007 0.682176C1.91901 0.633406 1.26153 0.572903 1.14423 0.558088C0.763327 0.510553 0.474405 0.403749 0.270678 0.23583C0.213882 0.188911 0.131773 0.0975408 0.0965844 0.0419789C0.0817678 0.0191386 0.0681863 0 0.0663339 0C0.0644815 0 0.0607776 0.0148159 0.058926 0.0321036L0.058926 0.0321036Z" transform="translate(0 16.149063)" id="Shape" fill="#048C4C" fill-rule="evenodd" stroke="none" />
    <path d="M0.0314829 0.0166697C0.0197537 0.0481523 0.00864242 0.107419 0.0043197 0.161748L0 0.216073L0.0246944 0.254965C0.124705 0.413008 0.201257 0.634023 0.222864 0.827253L0.227805 0.873554L0.229038 0.81861C0.23151 0.636491 0.180267 0.326579 0.120385 0.167303C0.0987774 0.108037 0.0469169 0 0.0413612 0C0.0395104 0 0.0351877 0.00740944 0.0314829 0.0166697L0.0314829 0.0166697Z" transform="translate(20.710052 16.414505)" id="Shape" fill="#048C4C" fill-rule="evenodd" stroke="none" />
    <path d="M0.148145 0.0667574C0.0783814 0.264311 0.0364023 0.427909 0.0141769 0.59089C0.000596859 0.691518 -0.0043438 0.875491 0.00429859 0.954511C0.0110901 1.0144 0.0320796 1.11441 0.04134 1.13169C0.0431939 1.13539 0.0450447 1.06996 0.0450447 0.986615C0.0450447 0.868699 0.0475136 0.818693 0.056159 0.766218C0.0771485 0.638425 0.116041 0.50878 0.16296 0.407535C0.175308 0.380372 0.19321 0.328515 0.202471 0.292092C0.219759 0.226034 0.219759 0.224183 0.211731 0.161829C0.204325 0.103799 0.182717 0.00625493 0.175926 8.13894e-05C0.174072 -0.00176947 0.161725 0.0284803 0.148145 0.0667574L0.148145 0.0667574Z" transform="translate(21.866974 16.571228)" id="Shape" fill="#048C4C" fill-rule="evenodd" stroke="none" />
    <path d="M0.214997 0.0131429C0.141533 0.0495662 0.0625099 0.214398 0.0205312 0.421212C-0.00478086 0.544683 -0.00601375 0.568762 0.0131217 0.630497C0.100169 0.915713 0.119307 1.20896 0.0686834 1.47812C0.060659 1.52196 0.048312 1.57875 0.0421385 1.60283C0.035965 1.62752 0.0316423 1.6479 0.0334962 1.6479C0.035347 1.6479 0.0563364 1.6374 0.0810304 1.62505C0.205119 1.55962 0.379831 1.3954 0.43107 1.29477C0.453295 1.25155 0.495892 1.06079 0.513795 0.925591C0.556391 0.608272 0.502683 0.308855 0.360075 0.0693197C0.334763 0.0273408 0.325502 0.0168446 0.305749 0.00882021C0.273027 -0.00414483 0.2471 -0.00290892 0.214997 0.0131429L0.214997 0.0131429Z" transform="translate(20.22522 16.717484)" id="Shape" fill="#048C4C" fill-rule="evenodd" stroke="none" />
    <path d="M0.252037 0.00186894C0.196475 0.014216 0.189683 0.0222404 0.123628 0.154971C0.0674479 0.267331 0.0310245 0.384628 0.01065 0.51921C-0.00354799 0.611813 -0.00354799 0.80628 0.01065 0.914317C0.0310245 1.06557 0.0717706 1.24584 0.0976977 1.29584C0.14894 1.39523 0.302661 1.54155 0.439097 1.62057C0.464406 1.63538 0.485399 1.64588 0.48725 1.64403C0.488486 1.64279 0.485399 1.62921 0.480458 1.6144C0.465642 1.57242 0.43601 1.45141 0.425514 1.38968C0.381063 1.12792 0.411931 0.868015 0.518118 0.613049L0.535402 0.570449L0.524909 0.498839C0.481076 0.200037 0.358841 -0.0228252 0.252037 0.00186894L0.252037 0.00186894Z" transform="translate(22.098297 16.861435)" id="Shape" fill="#048C4C" fill-rule="evenodd" stroke="none" />
    <path d="M1.04596 0.00377406C0.856437 0.0284682 0.549611 0.127245 0.379221 0.217997C0.302051 0.259358 0.244021 0.30134 0.197719 0.348874C0.154504 0.393943 0.133515 0.431599 0.116845 0.494571L0.106352 0.533463L0.134748 0.573591C0.169938 0.622979 0.219944 0.727929 0.234142 0.78164C0.249576 0.840907 0.253281 0.948326 0.241552 1.00759C0.235996 1.03414 0.228587 1.08661 0.224882 1.12427C0.205743 1.30022 0.143393 1.4453 0.00387052 1.63976C-0.00353893 1.65026 -0.00230302 1.65149 0.0254779 1.65643C0.0828906 1.66631 0.36996 1.66199 0.450216 1.65026C0.665057 1.61877 0.858906 1.56692 1.1077 1.47493C1.27809 1.41134 1.34538 1.37183 1.43551 1.28108L1.48428 1.23169L1.51145 1.14712C1.56701 0.973638 1.58553 0.841525 1.58121 0.648909C1.57689 0.479137 1.56207 0.381596 1.51577 0.221084C1.49601 0.151939 1.47256 0.113662 1.42934 0.0790925C1.39785 0.0537804 1.33921 0.0259994 1.28982 0.0130344C1.24599 0.00130525 1.10461 -0.00425034 1.04596 0.00377406L1.04596 0.00377406Z" transform="translate(18.547882 17.207153)" id="Shape" fill="#048C4C" fill-rule="evenodd" stroke="none" />
    <path d="M0.35251 0.00631521C0.267931 0.0229819 0.194467 0.061877 0.149401 0.114352C0.0685269 0.206955 0 0.461921 0 0.666883C0 0.812579 0.0339545 0.986053 0.0926031 1.13669C0.122853 1.21571 0.143845 1.24843 0.193234 1.2935C0.277191 1.37005 0.342632 1.40894 0.469807 1.4571C0.856272 1.60279 1.22174 1.67687 1.49647 1.66391C1.62241 1.65835 1.61624 1.66206 1.57919 1.60649C1.5119 1.50648 1.45202 1.36387 1.42486 1.23794C1.41189 1.18114 1.41065 1.15891 1.41065 0.990376C1.41065 0.837274 1.41251 0.797146 1.42115 0.757633C1.4372 0.687255 1.4656 0.619964 1.50264 0.564402L1.53598 0.515632L1.52672 0.484146C1.50264 0.400185 1.44893 0.33413 1.35139 0.269308C1.20075 0.169296 0.878497 0.0526167 0.638962 0.0118708C0.561792 -0.00109423 0.406221 -0.004181 0.35251 0.00631521L0.35251 0.00631521Z" transform="translate(22.692963 17.353348)" id="Shape" fill="#048C4C" fill-rule="evenodd" stroke="none" />
    <path d="M1.07057 0.00129017C1.05884 0.00252307 1.01686 0.00684576 0.977966 0.0105505C0.834124 0.0241305 0.653238 0.0605568 0.571131 0.0926574C0.47359 0.131553 0.332214 0.219833 0.203187 0.322314C0.0753968 0.424178 0.0327969 0.482208 0.0105746 0.584072C-0.00362635 0.651363 -0.00362635 0.885957 0.0111895 0.966831C0.0253905 1.04585 0.058109 1.14216 0.0957682 1.21377C0.131574 1.28168 0.200718 1.38108 0.21677 1.38787C0.236524 1.39527 0.337772 1.39281 0.397654 1.38355C0.600762 1.35021 0.870547 1.24588 1.12243 1.10265C1.27121 1.01807 1.33665 0.95078 1.58606 0.627287C1.63422 0.565551 1.6941 0.497642 1.75645 0.435907C1.88424 0.309349 1.92993 0.237118 1.91881 0.177854C1.90894 0.12723 1.8188 0.0729038 1.69225 0.0408002C1.5626 0.00869661 1.4984 0.00190813 1.28664 0.000672217C1.17984 -0.000563697 1.0823 5.42596e-05 1.07057 0.00129017L1.07057 0.00129017Z" transform="translate(24.289368 17.5652)" id="Shape" fill="#048C4C" fill-rule="evenodd" stroke="none" />
    <path d="M1.5545 0.00343042C1.40017 0.00898602 1.21928 0.0275067 1.05136 0.0546697C0.51056 0.142335 0.094463 0.318897 0.0129726 0.496697C-0.006166 0.538676 -0.00431364 0.573866 0.0197641 0.622019C0.0382847 0.657827 0.0956974 0.721414 0.142617 0.757219L0.174719 0.781298L0.61551 0.785618C0.858129 0.788087 1.07729 0.792409 1.10322 0.796114C1.24336 0.814635 1.35572 0.852294 1.64402 0.978852C1.80577 1.05046 1.88664 1.08195 1.95887 1.10356C1.99962 1.11529 2.06999 1.12887 2.09222 1.12887C2.09778 1.12887 2.12 1.10602 2.14223 1.07763C2.27372 0.910325 2.33546 0.769566 2.35089 0.601029C2.35398 0.56337 2.36077 0.512749 2.36571 0.487436C2.38114 0.405944 2.35768 0.310254 2.30088 0.225678C2.25644 0.158384 2.25397 0.156533 2.18112 0.125666C1.99097 0.0441735 1.77984 -0.00459701 1.63785 0.000343645C1.61748 0.000958589 1.57982 0.00219451 1.5545 0.00343042L1.5545 0.00343042Z" transform="translate(16.236664 17.68097)" id="Shape" fill="#048C4C" fill-rule="evenodd" stroke="none" />
  </g>
</svg>