<?xml version="1.0" encoding="UTF-8"?>
<svg width="36px" height="52px" viewBox="0 0 36 52" version="1.1" xmlns="http://www.w3.org/2000/svg" xmlns:xlink="http://www.w3.org/1999/xlink">
    <!-- Generator: Sketch 61.2 (89653) - https://sketch.com -->
    <title>map-marker</title>
    <desc>Created with Sketch.</desc>
    <g id="Page-1" stroke="none" stroke-width="1" fill="none" fill-rule="evenodd">
        <g id="map" transform="translate(-892.000000, -260.000000)" fill-rule="nonzero">
            <g id="map-marker" transform="translate(891.583333, 260.000000)">
                <path d="M18.4166667,24.7 C14.8809524,24.7 11.9880952,21.775 11.9880952,18.2 C11.9880952,14.625 14.8809524,11.7 18.4166667,11.7 C21.952381,11.7 24.8452381,14.625 24.8452381,18.2 C24.8452381,21.775 21.952381,24.7 18.4166667,24.7 M18.4166667,0 C8.45238095,0 0.416666667,8.125 0.416666667,18.2 C0.416666667,31.85 18.4166667,52 18.4166667,52 C18.4166667,52 36.4166667,31.85 36.4166667,18.2 C36.4166667,8.125 28.3809524,0 18.4166667,0 Z" id="Shape" fill="#029246"></path>
                <circle id="Oval" fill="#006837" cx="18.9166667" cy="18.5" r="7.5"></circle>
            </g>
        </g>
    </g>
</svg>